<svg width="15.000000" height="15.000000" viewBox="0 0 15 15" fill="none" xmlns="http://www.w3.org/2000/svg">
	<rect id="vuesax/linear/calendar" width="15.000000" height="15.000000" fill="currentColor" fill-opacity="0"/>
	<path id="Vector" d="M5 1.25L5 3.125" stroke="currentColor" stroke-opacity="1.000000" stroke-width="0.937500" stroke-linejoin="round" stroke-linecap="round"/>
	<path id="Vector" d="M10 1.25L10 3.125" stroke="currentColor" stroke-opacity="1.000000" stroke-width="0.937500" stroke-linejoin="round" stroke-linecap="round"/>
	<path id="Vector" d="M2.1875 5.68115L12.8125 5.68115" stroke="currentColor" stroke-opacity="1.000000" stroke-width="0.937500" stroke-linejoin="round" stroke-linecap="round"/>
	<path id="Vector" d="M13.125 10.625C13.125 12.5 12.1875 13.75 10 13.75L5 13.75C2.8125 13.75 1.875 12.5 1.875 10.625L1.875 5.3125C1.875 3.4375 2.8125 2.1875 5 2.1875L10 2.1875C12.1875 2.1875 13.125 3.4375 13.125 5.3125L13.125 10.625Z" stroke="currentColor" stroke-opacity="1.000000" stroke-width="0.937500" stroke-linejoin="round"/>
	<g opacity="0.000000"/>
	<path id="Vector" d="M9.8092 8.5625L9.81482 8.5625" stroke="currentColor" stroke-opacity="1.000000" stroke-width="1.250000" stroke-linejoin="round" stroke-linecap="round"/>
	<path id="Vector" d="M9.8092 10.4375L9.81482 10.4375" stroke="currentColor" stroke-opacity="1.000000" stroke-width="1.250000" stroke-linejoin="round" stroke-linecap="round"/>
	<path id="Vector" d="M7.49719 8.5625L7.50281 8.5625" stroke="currentColor" stroke-opacity="1.000000" stroke-width="1.250000" stroke-linejoin="round" stroke-linecap="round"/>
	<path id="Vector" d="M7.49719 10.4375L7.50281 10.4375" stroke="currentColor" stroke-opacity="1.000000" stroke-width="1.250000" stroke-linejoin="round" stroke-linecap="round"/>
	<path id="Vector" d="M5.18396 8.5625L5.18958 8.5625" stroke="currentColor" stroke-opacity="1.000000" stroke-width="1.250000" stroke-linejoin="round" stroke-linecap="round"/>
	<path id="Vector" d="M5.18396 10.4375L5.18958 10.4375" stroke="currentColor" stroke-opacity="1.000000" stroke-width="1.250000" stroke-linejoin="round" stroke-linecap="round"/>
</svg>
