<svg width="26" height="26" viewBox="0 0 26 26" xmlns="http://www.w3.org/2000/svg">
<path d="M12.6608 21.3391C12.6608 22.9188 11.3802 24.1994 9.80046 24.1994C8.22076 24.1994 6.94016 22.9188 6.94016 21.3391C6.94016 20.2852 7.51019 19.3644 8.3588 18.8682C8.34338 18.8273 7.12072 13.844 4.69092 3.91832C4.67164 3.83939 4.6282 3.76845 4.56665 3.7154C4.5051 3.66236 4.42852 3.62986 4.34761 3.62244L0.910076 3.6208C0.407485 3.62075 0 3.21332 0 2.71067C0 2.22478 0.380734 1.82786 0.860149 1.80193L4.31198 1.8006C5.30751 1.8006 6.17705 2.46553 6.44165 3.41941L6.89171 5.25794L25.0899 5.25809C25.5925 5.25809 25.9999 5.66558 25.9999 6.16817C25.9999 6.20436 25.9879 6.29922 25.964 6.45278L23.6949 15.5534C23.5867 15.9873 23.1839 16.2701 22.7528 16.2415L9.57492 16.2449L10.0478 18.1804C10.0671 18.2594 10.1105 18.3303 10.1721 18.3834C10.2336 18.4364 10.3102 18.4689 10.3911 18.4763L20.9816 18.4788C22.5613 18.4788 23.8419 19.7594 23.8419 21.3391C23.8419 22.8196 22.7171 24.0374 21.2754 24.1845C21.1778 24.1944 21.0797 24.1994 20.9816 24.1994C19.4019 24.1994 18.1213 22.9188 18.1213 21.3391C18.1209 20.983 18.1871 20.63 18.3165 20.2982H12.4655C12.595 20.63 12.6612 20.983 12.6608 21.3391ZM20.9817 20.299C20.4073 20.299 19.9416 20.7647 19.9416 21.3391C19.9416 21.9135 20.4073 22.3792 20.9817 22.3792C21.5561 22.3792 22.0218 21.9135 22.0218 21.3391C22.0218 20.7647 21.5561 20.299 20.9817 20.299ZM9.80041 20.299C9.22599 20.299 8.76031 20.7647 8.76031 21.3391C8.76031 21.9135 9.22599 22.3792 9.80041 22.3792C10.3748 22.3792 10.8405 21.9135 10.8405 21.3391C10.8406 20.7647 10.3749 20.299 9.80041 20.299ZM23.9319 7.07809H7.33641L9.13063 14.4252L22.1004 14.4247L23.9319 7.07809Z" fill="currentColor"/>
</svg>
