<svg width="20" height="18" viewBox="0 0 20 18" fill="none" xmlns="http://www.w3.org/2000/svg">
<path fill-rule="evenodd" clip-rule="evenodd" d="M9.77385 17.3619C7.72383 16.1002 5.81673 14.6153 4.08667 12.9338C2.87037 11.7228 1.9444 10.2465 1.37971 8.61786C0.363535 5.45862 1.5505 1.84189 4.87229 0.771547C6.61809 0.209522 8.52477 0.530744 9.99588 1.63473C11.4675 0.532089 13.3736 0.210979 15.1195 0.771547C18.4413 1.84189 19.6368 5.45862 18.6206 8.61786C18.0559 10.2465 17.1299 11.7228 15.9136 12.9338C14.1836 14.6153 12.2765 16.1002 10.2264 17.3619L10.0044 17.5L9.77385 17.3619Z" stroke="currentColor" stroke-width="0.85" stroke-linecap="round" stroke-linejoin="round"/>
<path d="M13.5332 4.32831C14.5393 4.6497 15.2542 5.55297 15.3435 6.61574" stroke="currentColor" stroke-width="0.85" stroke-linecap="round" stroke-linejoin="round"/>
</svg>
