<svg width="23" height="23" viewBox="0 0 23 23" xmlns="http://www.w3.org/2000/svg">
<path d="M11.6771 0.31543C7.81387 0.31543 4.5918 3.42736 4.5918 7.40068C4.5918 8.91229 5.04603 10.2602 5.91777 11.5233L11.1348 19.664C11.3879 20.0598 11.9667 20.059 12.2193 19.664L17.459 11.4956C18.3119 10.2898 18.7623 8.87386 18.7623 7.40068C18.7623 3.49388 15.5839 0.31543 11.6771 0.31543ZM11.6771 10.6213C9.90132 10.6213 8.45648 9.17642 8.45648 7.40068C8.45648 5.62495 9.90132 4.18011 11.6771 4.18011C13.4528 4.18011 14.8976 5.62495 14.8976 7.40068C14.8976 9.17642 13.4528 10.6213 11.6771 10.6213Z" fill="currentColor"/>
<path d="M16.7128 15.1175L13.4694 20.1883C12.6299 21.4972 10.7201 21.4929 9.88464 20.1895L6.63598 15.1188C3.77766 15.7797 2.01562 16.9903 2.01562 18.437C2.01562 20.9475 6.99368 22.3017 11.6773 22.3017C16.361 22.3017 21.339 20.9475 21.339 18.437C21.339 16.9893 19.5746 15.778 16.7128 15.1175Z" fill="currentColor"/>
</svg>
