<svg width="46" height="49" viewBox="0 0 46 49" xmlns="http://www.w3.org/2000/svg">
<path d="M37.155 16.0785L27.4698 6.81445C27.3497 6.69961 27.1496 6.62305 26.9895 6.62305H13.0221C11.1011 6.62305 9.54025 8.11602 9.54025 9.95352V22.8543H5.41806C4.29746 22.8543 3.41699 23.6965 3.41699 24.7684V35.9848C3.41699 37.0566 4.29746 37.8988 5.41806 37.8988H9.54025V39.1238C9.54025 40.9613 11.1011 42.4543 13.0221 42.4543H33.9132C35.8343 42.4543 37.3951 40.9613 37.3951 39.1238V16.5379C37.3551 16.3848 37.275 16.1934 37.155 16.0785ZM34.9538 15.8871H29.711C28.5904 15.8871 27.6299 15.0066 27.6299 13.8965V8.88164L34.9538 15.8871ZM4.81774 35.9465V24.7301C4.81774 24.4238 5.09789 24.1559 5.41806 24.1559H25.6688C25.989 24.1559 26.2692 24.4238 26.2692 24.7301V35.9465C26.2692 36.2527 25.989 36.5207 25.6688 36.5207H5.41806C5.09789 36.5207 4.81774 36.2527 4.81774 35.9465ZM33.9132 41.0379H13.0221C11.9015 41.0379 10.941 40.1574 10.941 39.0473V37.8223H25.6288C26.7494 37.8223 27.6299 36.9801 27.6299 35.9082V24.7301C27.6299 23.6582 26.7494 22.816 25.6288 22.816H10.941V9.91523C10.941 8.84336 11.8615 7.92461 13.0221 7.92461H26.2692V13.8965C26.2692 15.734 27.83 17.227 29.751 17.227H35.9943V39.0855C35.9543 40.1574 35.0338 41.0379 33.9132 41.0379Z" fill="currentColor"/>
<path d="M11.702 29.4383C11.702 28.3281 10.7815 27.5625 9.54084 27.5625H6.93945V33.075H8.18011V31.2758H9.54084C10.7815 31.3141 11.702 30.5484 11.702 29.4383ZM9.38075 30.2039H8.14009V28.6344H9.38075C9.98107 28.6344 10.4213 28.9406 10.4213 29.4C10.4213 29.8594 9.98107 30.2039 9.38075 30.2039Z" fill="currentColor"/>
<path d="M18.3042 30.3187C18.3042 28.7109 16.9435 27.5625 14.9825 27.5625H12.9014V33.075H14.9825C16.9435 33.1133 18.3042 31.9648 18.3042 30.3187ZM14.182 28.6344H15.1826C16.1431 28.5578 16.9835 29.2852 17.0636 30.2039C17.1436 31.2375 16.2632 32.0797 15.1826 32.0031H14.182V28.6344Z" fill="currentColor"/>
<path d="M20.9457 30.9313H23.8273V29.8594H20.9457V28.6344H24.1474V27.5625H19.7051V33.1133H20.9457V30.9313Z" fill="currentColor"/>
</svg>
