<svg width="14" height="14" viewBox="0 0 14 14" fill="none" xmlns="http://www.w3.org/2000/svg">
<path d="M11.708 12.4789C10.4052 13.7817 7.06855 12.5575 4.25551 9.74449C1.44248 6.93145 0.218261 3.59485 1.52114 2.29197L2.37898 1.43412C2.9712 0.841904 3.94703 0.857558 4.55856 1.46909L5.88728 2.79781C6.49881 3.40934 6.51447 4.38517 5.92225 4.97739L5.73799 5.16165C5.41825 5.48139 5.38696 5.99721 5.68407 6.35725C5.97064 6.70452 6.2796 7.05043 6.61458 7.38542C6.94957 7.7204 7.29548 8.02936 7.64275 8.31593C8.00279 8.61304 8.51861 8.58175 8.83835 8.26201L9.02261 8.07775C9.61483 7.48553 10.5907 7.50119 11.2022 8.11272L12.5309 9.44144C13.1424 10.053 13.1581 11.0288 12.5659 11.621L11.708 12.4789Z" stroke="currentColor"/>
</svg>
