<svg width="23" height="22" viewBox="0 0 23 22" xmlns="http://www.w3.org/2000/svg">
<path d="M21.1545 14.4405C19.7463 14.4405 18.3637 14.2298 17.0535 13.8157C16.4115 13.6062 15.6222 13.7984 15.2304 14.1833L12.6443 16.0507C9.64509 14.5193 7.79766 12.7528 6.21857 9.90556L8.11337 7.49633C8.60565 7.02608 8.78223 6.33915 8.57067 5.69462C8.13583 4.43478 7.91494 3.11289 7.91494 1.76539C7.915 0.791943 7.08706 0 6.06942 0H1.84557C0.82794 0 0 0.791943 0 1.76533C0 12.9229 9.48978 22 21.1545 22C22.1721 22 23.0001 21.2081 23.0001 20.2347V16.2058C23 15.2324 22.1721 14.4405 21.1545 14.4405Z" fill="currentColor"/>
</svg>
