<svg width="24" height="24" viewBox="0 0 24 24" xmlns="http://www.w3.org/2000/svg">
<path d="M19.6155 5.07691H16.1539V4.3846C16.1539 3.83377 15.9351 3.30549 15.5456 2.916C15.1561 2.5265 14.6278 2.30768 14.077 2.30768H9.92315C9.37232 2.30768 8.84404 2.5265 8.45455 2.916C8.06505 3.30549 7.84623 3.83377 7.84623 4.3846V5.07691H4.38469C4.20108 5.07691 4.02499 5.14985 3.89516 5.27968C3.76532 5.40951 3.69238 5.58561 3.69238 5.76922C3.69238 5.95283 3.76532 6.12892 3.89516 6.25875C4.02499 6.38859 4.20108 6.46152 4.38469 6.46152H5.077V18.9231C5.077 19.2903 5.22288 19.6425 5.48254 19.9021C5.74221 20.1618 6.09439 20.3077 6.46161 20.3077H17.5385C17.9058 20.3077 18.2579 20.1618 18.5176 19.9021C18.7773 19.6425 18.9232 19.2903 18.9232 18.9231V6.46152H19.6155C19.7991 6.46152 19.9752 6.38859 20.105 6.25875C20.2348 6.12892 20.3078 5.95283 20.3078 5.76922C20.3078 5.58561 20.2348 5.40951 20.105 5.27968C19.9752 5.14985 19.7991 5.07691 19.6155 5.07691ZM9.23084 4.3846C9.23084 4.20099 9.30378 4.0249 9.43362 3.89507C9.56345 3.76523 9.73954 3.69229 9.92315 3.69229H14.077C14.2606 3.69229 14.4367 3.76523 14.5665 3.89507C14.6964 4.0249 14.7693 4.20099 14.7693 4.3846V5.07691H9.23084V4.3846ZM17.5385 18.9231H6.46161V6.46152H17.5385V18.9231ZM10.6155 9.92306V15.4615C10.6155 15.6451 10.5425 15.8212 10.4127 15.9511C10.2829 16.0809 10.1068 16.1538 9.92315 16.1538C9.73954 16.1538 9.56345 16.0809 9.43362 15.9511C9.30378 15.8212 9.23084 15.6451 9.23084 15.4615V9.92306C9.23084 9.73945 9.30378 9.56336 9.43362 9.43353C9.56345 9.30369 9.73954 9.23076 9.92315 9.23076C10.1068 9.23076 10.2829 9.30369 10.4127 9.43353C10.5425 9.56336 10.6155 9.73945 10.6155 9.92306ZM14.7693 9.92306V15.4615C14.7693 15.6451 14.6964 15.8212 14.5665 15.9511C14.4367 16.0809 14.2606 16.1538 14.077 16.1538C13.8934 16.1538 13.7173 16.0809 13.5875 15.9511C13.4576 15.8212 13.3847 15.6451 13.3847 15.4615V9.92306C13.3847 9.73945 13.4576 9.56336 13.5875 9.43353C13.7173 9.30369 13.8934 9.23076 14.077 9.23076C14.2606 9.23076 14.4367 9.30369 14.5665 9.43353C14.6964 9.56336 14.7693 9.73945 14.7693 9.92306Z" fill="currentColor"/>
</svg>
