<svg width="22" height="22" viewBox="0 0 22 22" xmlns="http://www.w3.org/2000/svg">
<path d="M11 -6.10352e-05C4.93436 -6.10352e-05 0 4.9343 0 10.9999C0 17.0656 4.93436 21.9999 11 21.9999C17.0656 21.9999 22 17.0656 22 10.9999C22 4.9343 17.0656 -6.10352e-05 11 -6.10352e-05ZM16.2314 16.6896C16.0527 16.8684 15.818 16.9583 15.5834 16.9583C15.3487 16.9583 15.1139 16.8684 14.9353 16.6896L10.3519 12.1064C10.1796 11.935 10.0834 11.702 10.0834 11.4583V5.49994C10.0834 4.99304 10.4939 4.58333 11 4.58333C11.5061 4.58333 11.9166 4.99304 11.9166 5.49994V11.0788L16.2314 15.3935C16.5898 15.752 16.5898 16.3313 16.2314 16.6896Z" fill="currentColor"/>
</svg>
