<svg width="16" height="15" viewBox="0 0 16 15" xmlns="http://www.w3.org/2000/svg">
<path fill-rule="evenodd" clip-rule="evenodd" d="M12.0515 12.3688L12.0519 12.3677L12.0628 12.3405L13.937 2.89111V2.86042C13.937 2.62498 13.85 2.41944 13.6607 2.29616C13.495 2.18824 13.3045 2.18056 13.171 2.19069C13.0297 2.20142 12.8965 2.23668 12.8043 2.26603C12.7569 2.28113 12.7172 2.29568 12.6888 2.30668C12.6745 2.3122 12.663 2.31689 12.6546 2.32038L12.6463 2.32385L2.19643 6.42319L2.19355 6.42422C2.18791 6.42627 2.18044 6.42906 2.17143 6.43257C2.15346 6.43956 2.129 6.44957 2.10026 6.4626C2.04383 6.48817 1.96587 6.52763 1.88681 6.58178C1.75253 6.67374 1.49683 6.89144 1.54001 7.23658C1.57577 7.52246 1.77283 7.70402 1.90569 7.79802C1.97691 7.84841 2.04504 7.88475 2.09493 7.9085C2.12021 7.92054 2.14169 7.92976 2.15768 7.93627C2.1657 7.93953 2.1724 7.94214 2.17759 7.94411L2.18423 7.94659L2.18847 7.94817L4.01675 8.56367C4.01058 8.67838 4.02196 8.79534 4.05238 8.91073L4.96818 12.3847C5.07676 12.7966 5.4494 13.0836 5.87539 13.0833C6.25722 13.083 6.59586 12.852 6.73972 12.5074L8.16953 10.9786L10.6251 12.8612L10.6601 12.8764C10.8832 12.9738 11.0916 13.0046 11.2822 12.9786C11.4725 12.9526 11.6237 12.8728 11.7373 12.7819C11.8491 12.6925 11.9257 12.5915 11.9739 12.5156C11.9984 12.4769 12.0166 12.443 12.0293 12.4175C12.0356 12.4046 12.0407 12.3938 12.0444 12.3853L12.0491 12.3744L12.0508 12.3704L12.0515 12.3688ZM4.95888 8.67175C4.93806 8.5928 4.97074 8.50945 5.03967 8.46568L11.2409 4.52761C11.2409 4.52761 11.6057 4.30617 11.5926 4.52761C11.5926 4.52761 11.6577 4.56671 11.4623 4.74904C11.2769 4.92221 7.04248 9.01038 6.61402 9.42405C6.58928 9.44793 6.57452 9.47532 6.56581 9.50858L5.87468 12.1458L4.95888 8.67175Z" fill="currentColor"/>
</svg>
