<svg width="16" height="16" viewBox="0 0 16 16" fill="none" xmlns="http://www.w3.org/2000/svg">
<path d="M0 15.0122L1.29105 11.1391C0.635767 10.0372 0.25821 8.75137 0.25821 7.377C0.25821 3.30269 3.5609 0 7.63521 0C11.7095 0 15.0122 3.30269 15.0122 7.377C15.0122 11.4506 11.7095 14.7532 7.63521 14.7532C6.39595 14.7532 5.228 14.4462 4.20342 13.9066L0 15.0122Z" fill="currentColor"/>
<path d="M12.0594 10.0041C11.7306 9.38183 10.5161 8.67025 10.5161 8.67025C10.2414 8.51337 9.90965 8.49611 9.75352 8.77534C9.75352 8.77534 9.3587 9.24822 9.25812 9.31653C8.80025 9.62728 8.3754 9.61527 7.9468 9.18667L6.95074 8.19061L5.95468 7.19455C5.52608 6.76595 5.51407 6.34111 5.82483 5.88324C5.89238 5.78265 6.36602 5.38783 6.36602 5.38783C6.64524 5.23096 6.62723 4.89994 6.4711 4.62521C6.4711 4.62521 5.75952 3.41072 5.13727 3.08196C4.8723 2.94159 4.54729 2.99038 4.33562 3.20205L3.89576 3.64191C2.50037 5.0373 3.18718 6.61283 4.58257 8.00821L5.85785 9.2835L7.13314 10.5588C8.52853 11.9542 10.1041 12.641 11.4994 11.2456L11.9393 10.8057C12.151 10.5933 12.1998 10.2683 12.0594 10.0041Z" fill="white"/>
</svg>
