<svg width="297" height="311" viewBox="0 0 297 311" fill="none" xmlns="http://www.w3.org/2000/svg">
<path d="M16.0872 15.8164L21.4268 8.95132L21.8214 9.25829L24.4912 5.82574C25.0795 5.06929 25.7464 4.3909 26.4756 3.79846L26.1603 3.41039C27.6964 2.16239 29.4986 1.28099 31.4268 0.834664L31.5395 1.32178C32.4549 1.10991 33.3998 1 34.3581 1H37.9703V0.5H45.1947V1H52.4191V0.5H59.6436V1H66.868V0.5H74.0924V1H81.3168V0.5H88.5413V1H95.7657V0.5H102.99V1H110.215V0.5H117.439V1H124.663V0.5H131.888V1H135.5C137.196 1 138.812 1.33742 140.285 1.94831L140.476 1.48645C143.654 2.8042 146.196 5.34603 147.514 8.52376L147.052 8.71529C147.663 10.1884 148 11.8042 148 13.5V13.75H148.5V14.25H148V14.5C148 16.3296 148.364 18.0753 149.025 19.6678L149.486 19.4762C150.804 22.654 153.346 25.1958 156.524 26.5136L156.332 26.9754C157.925 27.6358 159.67 28 161.5 28H164.875V27.5H171.625V28H178.375V27.5H185.125V28H191.875V27.5H198.625V28H205.375V27.5H212.125V28H218.875V27.5H225.625V28H232.375V27.5H239.125V28H242.5C244.33 28 246.075 27.6358 247.668 26.9754L247.476 26.5136C250.654 25.1958 253.196 22.654 254.514 19.4762L254.975 19.6678C255.636 18.0753 256 16.3296 256 14.5V14.25H255.5V13.75H256V13.5C256 11.8042 256.337 10.1884 256.948 8.71529L256.486 8.52376C257.804 5.34603 260.346 2.80419 263.524 1.48644L263.715 1.94831C265.188 1.33742 266.804 1 268.5 1H272.375V0.5H280.125V1H284C285.696 1 287.312 1.33742 288.785 1.94831L288.976 1.48644C292.154 2.80419 294.696 5.34603 296.014 8.52376L295.552 8.71529C296.163 10.1884 296.5 11.8042 296.5 13.5V17.0562H297V24.1687H296.5V31.2812H297V38.3937H296.5V45.5062H297V52.6187H296.5V59.7312H297V66.8437H296.5V73.9562H297V81.0687H296.5V88.1812H297V95.2937H296.5V102.406H297V109.519H296.5V116.631H297V123.744H296.5V130.856H297V137.969H296.5V145.081H297V152.194H296.5V159.306H297V166.419H296.5V173.531H297V180.644H296.5V187.756H297V194.869H296.5V201.981H297V209.094H296.5V216.206H297V223.319H296.5V230.431H297V237.544H296.5V244.656H297V251.769H296.5V258.881H297V265.994H296.5V273.106H297V280.219H296.5V287.331H297V294.444H296.5V298C296.5 299.696 296.163 301.312 295.552 302.785L296.014 302.976C294.696 306.154 292.154 308.696 288.976 310.014L288.785 309.552C287.312 310.163 285.696 310.5 284 310.5H280.434V311H273.303V310.5H266.171V311H259.039V310.5H251.908V311H244.776V310.5H237.645V311H230.513V310.5H223.382V311H216.25V310.5H209.118V311H201.987V310.5H194.855V311H187.724V310.5H180.592V311H173.461V310.5H166.329V311H159.197V310.5H152.066V311H144.934V310.5H137.803V311H130.671V310.5H123.539V311H116.408V310.5H109.276V311H102.145V310.5H95.0132V311H87.8816V310.5H80.75V311H73.6184V310.5H66.4868V311H59.3553V310.5H52.2237V311H45.0921V310.5H37.9605V311H30.8289V310.5H23.6974V311H16.5658V310.5H13C11.3042 310.5 9.68843 310.163 8.21528 309.552L8.02376 310.014C4.84603 308.696 2.30419 306.154 0.986443 302.976L1.44831 302.785C0.837418 301.312 0.5 299.696 0.5 298V294.43H0V287.29H0.5V280.15H0V273.01H0.5V265.87H0V258.73H0.5V251.59H0V244.45H0.5V237.31H0V230.17H0.5V223.03H0V215.89H0.5V208.75H0V201.61H0.5V194.47H0V187.33H0.5V180.19H0V173.05H0.5V165.91H0V158.77H0.5V151.63H0V144.49H0.5V137.35H0V130.21H0.5V123.07H0V115.93H0.5V108.79H0V101.65H0.5V94.5103H0V87.3703H0.5V80.2303H0V73.0903H0.5V65.9503H0V58.8104H0.5V51.6704H0V44.5304H0.5V40.9604C0.5 40.2678 0.557519 39.5801 0.670288 38.904L0.1771 38.8218C0.41325 37.4059 0.88237 36.0386 1.56522 34.776L2.00502 35.0139C2.33111 34.411 2.70789 33.8328 3.1331 33.2861L5.80286 29.8536L5.40818 29.5466L10.7477 22.6815L11.1424 22.9885L16.4819 16.1234L16.0872 15.8164Z" stroke="#D9D9D9" stroke-dasharray="7 7"/>
</svg>
