<svg width="1111" height="307" viewBox="0 0 1111 307" fill="none" xmlns="http://www.w3.org/2000/svg">
<path d="M117.481 248.55V194.68L234.571 10.1818H282.44V83.3111H254.668L186.144 191.888V194.121H355.709V248.55H117.481ZM255.505 296V232.082L256.901 208.496V10.1818H321.517V296H255.505ZM757.733 248.55V194.68L874.824 10.1818H922.693V83.3111H894.92L826.396 191.888V194.121H995.961V248.55H757.733ZM895.758 296V232.082L897.153 208.496V10.1818H961.769V296H895.758Z" fill="#2D2D2D"/>
<path d="M554.601 306.8C639.322 306.8 708.001 238.12 708.001 153.4C708.001 68.6795 639.322 0 554.601 0C469.881 0 401.201 68.6795 401.201 153.4C401.201 238.12 469.881 306.8 554.601 306.8Z" fill="#102A83"/>
<path d="M622.833 39.1968C623.801 41.3744 624.768 44.2779 625.736 47.6653C629.124 60.9728 630.575 82.023 613.396 89.2817L467.013 152.674C457.577 156.787 447.415 157.029 438.22 154.368H437.978C431.688 152.432 425.881 149.045 421.042 144.448C416.928 140.576 413.783 135.979 411.363 130.656L622.833 39.1968Z" fill="white"/>
<path d="M627.914 51.5366L650.658 104.283C653.561 111.058 650.416 118.8 643.641 121.946L470.884 196.71C464.11 199.614 456.125 196.468 453.222 189.693L437.979 154.61C447.173 157.271 457.335 157.029 466.771 152.916L613.155 89.5237C630.333 82.023 628.882 61.2148 625.494 47.9072C626.462 48.8751 627.43 50.0848 627.914 51.5366Z" fill="#E5E5E5"/>
<path d="M437.978 154.368L451.285 185.338L440.639 189.935L421.041 144.448C425.88 149.287 431.687 152.674 437.978 154.368Z" fill="#9CDAE9"/>
<path d="M424.22 152.121L414.449 156.346L427.414 186.326L437.185 182.1L424.22 152.121Z" fill="#9CDAE9"/>
<path d="M582.668 186.064L589.927 202.759C586.297 202.275 582.426 202.759 578.797 204.453C574.684 206.388 571.296 209.292 569.119 212.921L561.376 195.258C557.747 186.548 547.585 182.677 538.874 186.306L531.857 170.095L584.362 147.351L591.379 163.562C582.91 167.433 578.797 177.596 582.668 186.064Z" fill="#E5E5E5"/>
<path d="M605.168 235.665C608.797 229.858 609.765 222.357 606.862 215.583C606.378 214.615 605.894 213.405 605.168 212.437H662.028V235.423L605.168 235.665Z" fill="#E5E5E5"/>
<path d="M605.17 235.665C602.992 239.052 599.847 241.956 595.733 243.649C584.845 248.247 572.506 243.407 567.667 232.519C564.763 225.987 565.489 218.728 569.118 213.163C571.296 209.534 574.683 206.63 578.797 204.695C582.426 203.001 586.297 202.517 589.927 203.001C595.975 203.727 601.782 207.114 605.17 212.679C605.896 213.647 606.38 214.615 606.863 215.825C609.767 222.357 608.799 229.858 605.17 235.665Z" fill="white"/>
<path d="M684.047 195.258H662.029V252.602H684.047V195.258Z" fill="white"/>
<path d="M597.188 223.567C597.188 229.132 592.59 233.729 587.025 233.729C581.46 233.729 576.863 229.132 576.863 223.567C576.863 218.002 581.46 213.405 587.025 213.405C592.59 213.405 597.188 218.002 597.188 223.567Z" fill="#9CDAE9"/>
<path opacity="0.43" d="M619.202 98.9599L472.818 162.352C463.382 166.466 453.22 166.708 444.026 164.046C444.026 164.046 444.026 164.046 443.784 164.046C443.3 163.804 442.574 163.562 442.09 163.562L438.219 154.61C447.413 157.271 457.575 157.029 467.012 152.916L613.395 89.7656C629.606 82.7489 629.122 63.6344 626.218 50.3268L627.186 49.8429C627.67 50.3268 627.912 51.0527 628.154 51.7785L632.509 61.6988C634.929 74.5224 634.445 92.4271 619.202 98.9599Z" fill="#808080"/>
<path opacity="0.43" d="M590.411 161.143C587.266 163.32 586.298 163.562 582.668 165.982L548.795 185.096C545.649 184.612 542.262 184.854 539.116 186.306L532.1 170.095L584.604 147.351L590.411 161.143Z" fill="#808080"/>
</svg>
