<svg width="160" height="64" viewBox="0 0 160 64" fill="none" xmlns="http://www.w3.org/2000/svg">
<path fill-rule="evenodd" clip-rule="evenodd" d="M25.8055 6.05771L37.8973 14.6581L49.9893 23.2584C50.212 23.4169 50.2976 23.6964 50.2205 23.944L50.2211 23.9442L45.7782 38.1019L41.3354 52.2595C41.2495 52.5354 40.9874 52.7079 40.7114 52.6921L25.9135 52.8412L11.0759 52.9909C10.8025 52.993 10.5693 52.8167 10.487 52.5707L10.4868 52.5708L5.75939 38.5055L1.03201 24.4403C0.943819 24.1768 1.04379 23.8957 1.25904 23.7426L13.1653 14.9074L25.0813 6.06496C25.3012 5.90196 25.5939 5.90715 25.8055 6.05771ZM37.1827 15.6625L25.4557 7.32164L13.8992 15.8973L2.34291 24.4727L6.9279 38.1144L11.5126 51.755L25.9037 51.6098L40.2914 51.4648L44.6 37.7348L48.9092 24.003L37.1827 15.6625Z" fill="white" stroke="#868789" stroke-width="0.0412577"/>
<path d="M25.4491 6.55994L37.541 15.1603L49.6328 23.7606L45.19 37.9183L40.7472 52.0759L25.9096 52.2255L11.0719 52.3751L6.34453 38.3099L1.61719 24.2447L13.5332 15.4023L25.4491 6.55994Z" fill="url(#paint0_linear_1302_2996)"/>
<path fill-rule="evenodd" clip-rule="evenodd" d="M27.725 9.10952L27.6738 9.58177L29.5672 10.9025C29.5672 10.9025 30.0234 10.191 30.2502 9.79008C30.3506 9.61254 30.2775 9.52976 30.3101 9.59445C30.4164 9.80538 28.3864 8.72751 28.3864 8.72751L27.725 9.10952Z" fill="white"/>
<path fill-rule="evenodd" clip-rule="evenodd" d="M34.5208 8.89611L34.7523 9.82914L32.6786 10.6891C32.6786 10.6891 32.2224 9.97757 31.9956 9.57667C31.8952 9.39914 31.9683 9.31634 31.9357 9.38104C31.8294 9.59195 33.8594 8.51407 33.8594 8.51407L34.5208 8.89611Z" fill="white"/>
<path fill-rule="evenodd" clip-rule="evenodd" d="M27.2461 27.4741L30.381 22.6929C30.381 22.6929 30.5954 22.657 30.8917 22.6241C31.239 22.5855 31.8225 22.6631 32.1659 22.5816C32.4187 22.5215 32.6308 22.1532 32.6623 22.2265C32.773 22.4842 35.5157 28.5692 35.5157 28.5692L31.4918 31.8656L27.2461 27.4741Z" fill="#C4C6C8"/>
<path fill-rule="evenodd" clip-rule="evenodd" d="M21.3394 20.742C21.4653 20.8058 20.8906 18.386 20.8906 18.386L21.2112 17.2481L21.8362 16.7192L22.2305 16.7606L23.1929 19.6678L22.6165 19.939L21.3781 20.9777L21.3394 20.742Z" fill="#C4C6C8"/>
<path fill-rule="evenodd" clip-rule="evenodd" d="M28.7839 12.8159L28.2463 13.6432L28.1719 13.9236L31.0225 22.5359L32.4321 22.418L35.4503 28.4232L35.8273 29.5284C35.8273 29.5284 37.8118 24.5538 37.8401 24.1533C37.8971 23.3464 36.6614 22.3673 36.5413 22.0924C35.4084 19.501 33.977 14.6233 33.6474 13.6884L28.7839 12.8159Z" fill="#E0E1E2"/>
<path fill-rule="evenodd" clip-rule="evenodd" d="M11.2285 57.6841H40.5781H11.2285Z" fill="#E30016"/>
<path d="M11.2285 57.6841H40.5781" stroke="#E30016" stroke-width="0.660027" stroke-linecap="round" stroke-linejoin="round"/>
<path fill-rule="evenodd" clip-rule="evenodd" d="M11.2285 53.864H40.5781H11.2285Z" fill="#E30016"/>
<path d="M11.2285 53.864H40.5781" stroke="#E30016" stroke-width="0.440196" stroke-linecap="round" stroke-linejoin="round"/>
<path fill-rule="evenodd" clip-rule="evenodd" d="M11.2285 50.0439H40.5781H11.2285Z" fill="#E30016"/>
<path d="M11.2285 50.0439H40.5781" stroke="#E30016" stroke-width="0.330271" stroke-linecap="round" stroke-linejoin="round"/>
<path fill-rule="evenodd" clip-rule="evenodd" d="M11.2285 46.2238H40.5781H11.2285Z" fill="#E30016"/>
<path d="M11.2285 46.2238H40.5781" stroke="#E30016" stroke-width="0.109906" stroke-linecap="round" stroke-linejoin="round"/>
<path fill-rule="evenodd" clip-rule="evenodd" d="M11.2285 42.4037H40.5781H11.2285Z" fill="#E30016"/>
<path d="M11.2285 42.4037H40.5781" stroke="#E30016" stroke-width="0.0167896" stroke-linecap="round" stroke-linejoin="round"/>
<path fill-rule="evenodd" clip-rule="evenodd" d="M32.7769 39.0615L32.1895 45.7069L33.3654 45.9613L34.3285 39.3899L33.7079 38.8858L32.7769 39.0615Z" fill="#ECECED"/>
<path fill-rule="evenodd" clip-rule="evenodd" d="M17.7436 35.3705L19.0816 35.8933L19.2317 44.2116L17.8168 44.6546L17.2578 39.564L17.5637 35.4399L17.7436 35.3705Z" fill="white" stroke="#1B1918" stroke-width="0.108282"/>
<path d="M1.57227 61.1039H51.5716" stroke="#E30016" stroke-width="0.108282"/>
<path fill-rule="evenodd" clip-rule="evenodd" d="M29.3532 1.08402L30.0808 5.82079L32.9874 5.93037L33.5215 0.78653L34.0387 1.02044L35.1569 5.14029L35.892 6.88051L34.9637 8.43368L34.6778 9.41374L34.0359 8.59907L33.5795 8.66072L32.2048 9.54907L32.8465 10.5957L33.9471 10.1618L34.6932 9.79858L35.2964 12.1539L34.9556 12.3094L33.7034 13.609L33.4757 13.9746L33.297 14.56L31.701 15.3725L30.0114 14.9477L29.4954 14.0854L28.1099 12.9364L27.2478 11.457L27.6798 9.53625L29.5678 10.9026L30.3857 9.76305L28.6178 8.71134L27.6798 9.53625L27.6173 8.89876L27.4364 8.7255L26.4805 6.31389L27.1423 6.34216C27.304 5.628 28.0361 4.23427 28.0361 4.23427L29.3532 1.08402Z" fill="#D9DADB"/>
<path d="M27.6798 9.53625L27.2478 11.457L28.1099 12.9364L29.4954 14.0854L30.0114 14.9477L31.701 15.3725L33.297 14.56L33.4757 13.9746L33.7034 13.609L34.9556 12.3094L35.2964 12.1539L34.6932 9.79858L33.9471 10.1618L32.8465 10.5957L32.2048 9.54907L33.5795 8.66072L34.0359 8.59907L34.6778 9.41374L34.9637 8.43368L35.892 6.88051L35.1569 5.14028L34.0387 1.02044L33.5215 0.78653L32.9874 5.93037L30.0808 5.82078L29.3532 1.08402L28.0361 4.23427C28.0361 4.23427 27.304 5.628 27.1423 6.34216L26.4805 6.31389L27.4364 8.7255L27.6173 8.89876L27.6798 9.53625ZM27.6798 9.53625L29.5678 10.9026L30.3857 9.76305L28.6178 8.71134L27.6798 9.53625Z" stroke="#D9DADB" stroke-width="0.0412577"/>
<path fill-rule="evenodd" clip-rule="evenodd" d="M23.367 19.6268L24.8709 20.2778L25.9067 19.6669L27.1465 17.3059L27.9265 14.6941L30.0043 22.4602L30.4057 22.6188L27.2697 27.369L26.1958 28.1835L25.5768 29.7782L23.3234 28.3661L21.5511 29.7858L20.9587 28.6956L20.4453 22.8154L21.5318 20.6721L22.6153 19.9389C22.6153 19.9389 23.3337 19.5682 23.367 19.6268Z" fill="white"/>
<path fill-rule="evenodd" clip-rule="evenodd" d="M17.5202 35.167L17.7769 35.2595C17.7426 35.3623 17.5475 36.028 17.6244 36.6031L18.0494 39.3339C18.0867 39.5547 17.736 42.046 17.5633 41.2249C17.5217 41.0271 17.5903 40.7478 17.4914 40.5541C17.4335 40.7083 17.527 42.0465 17.5346 42.2926C17.5433 42.5698 17.552 42.9041 17.5859 43.1567C17.6233 43.4357 17.652 43.6587 17.6437 43.9707C17.6568 43.7061 17.6811 43.4389 17.6631 43.1742C17.6525 43.0179 17.6038 42.7654 17.6575 42.609C17.7288 42.4016 17.6036 42.599 17.7756 42.4448L17.8266 43.6989C17.9281 43.8166 17.8988 43.7393 17.9931 43.8765C18.039 43.9433 17.9973 43.8726 18.0533 43.9861C18.1339 44.1497 18.0428 44.006 18.0899 44.0815C18.4255 44.116 18.4454 43.9454 18.7172 44.0129C18.8356 44.0423 19.1846 44.1111 19.2322 44.2116C19.1786 43.7939 18.7827 43.4766 18.8086 43.0392C18.9442 43.2652 18.7073 43.2932 19.0932 43.3482C19.1644 43.1543 19.1789 43.0336 19.1152 42.8308C18.9702 42.7862 18.8131 42.8446 18.6834 42.771C18.8468 42.676 18.9746 42.7189 19.1083 42.6147C19.1242 42.1449 19.1264 40.9755 18.9996 40.6047C18.9632 40.4981 18.996 40.5993 18.9374 40.4686C18.8824 40.3459 18.9829 40.5613 18.9037 40.3907C18.8994 40.3814 18.8872 40.3597 18.8836 40.3515L18.867 40.3158C18.8337 40.2008 18.8645 40.3137 18.8558 40.24L18.814 39.9703C18.7078 39.6363 18.6841 39.766 18.6771 39.2859L18.5807 36.8924C18.5849 36.8154 18.9693 36.6019 18.9956 36.3747C19.1079 35.4052 19.2108 35.9481 19.1731 36.6561C19.1069 37.9136 19.2765 39.6734 19.2292 40.6339C19.1435 42.3724 19.5796 41.6831 19.3837 42.2272C19.281 42.5122 19.3075 42.9214 19.3278 43.2947C19.4746 44.574 19.876 44.1976 19.876 44.1976C19.9606 44.6494 20.1973 44.638 20.1975 45.111L20.031 44.9353C20.0265 44.9139 20.0127 44.9098 20.0025 44.8979C20.0244 45.261 20.217 45.3666 20.3387 45.6472L20.4315 45.3818C20.5566 45.5371 20.8071 45.9654 20.8452 46.1143C20.1688 46.5213 18.7461 46.4409 17.5749 46.451C17.0967 46.0421 17.4921 45.4722 17.4465 44.8489L17.5475 44.1655C17.5444 44.1491 17.5387 44.1329 17.5344 44.118C17.5304 44.1043 17.5468 44.4649 17.5421 44.4525L17.5018 44.1991C17.547 43.9463 17.4119 42.863 17.4068 42.4178L17.3445 40.7907C17.0983 40.6444 17.5715 40.7928 17.3036 40.7937C17.1758 40.794 17.2255 39.7756 17.2583 39.564C17.363 38.8888 17.3621 36.6797 17.153 36.2293C17.1603 36.2156 17.1746 36.1984 17.1808 36.192L17.3492 36.0928C17.2843 35.8225 17.2706 36.0518 17.3689 35.774C17.1465 35.9349 17.329 35.8996 17.1308 35.9471C16.7812 35.5443 17.5453 35.2515 17.5202 35.167Z" fill="#1B1918"/>
<path fill-rule="evenodd" clip-rule="evenodd" d="M27.758 9.69839C27.7746 9.6472 27.7743 9.6821 27.7987 9.62176L27.8272 9.56389C27.8425 9.54431 27.8285 9.55896 27.8459 9.54442C27.8681 9.46842 28.0077 9.27428 28.0687 9.20055C28.3164 8.90098 28.4004 8.7402 28.7847 8.92787L29.1669 9.12367C29.1603 9.15005 29.1054 9.22588 29.0882 9.27226C29.0773 9.3016 29.05 9.44483 29.0496 9.48531C29.0471 9.70134 29.1274 9.6915 29.2384 9.78282C29.352 9.8764 29.554 9.92315 29.6858 9.80681C29.7084 9.78681 29.7285 9.77157 29.7495 9.75358C29.8492 9.66839 29.7999 9.71173 29.8613 9.62829C29.8724 9.57388 29.8639 9.52853 29.8773 9.50607C29.9043 9.4994 30.1861 9.64713 30.2118 9.67715L29.8792 10.193C29.8649 10.2179 29.8494 10.2486 29.8244 10.2671C29.7956 10.3372 29.6274 10.5657 29.5701 10.7238C29.5393 10.8086 29.5116 10.8389 29.567 10.9026C29.7295 10.8984 29.6838 10.8591 29.8495 10.6088L30.0177 10.3299C30.0785 10.2379 30.1389 10.1565 30.1974 10.0626L30.3698 9.78849C30.416 9.69641 30.4557 9.74832 30.6318 9.60365C30.7111 9.53856 30.7816 9.45081 30.8566 9.38099C31.1539 9.10419 31.0499 9.28738 31.1345 8.98738C31.1516 8.92657 31.1651 8.84054 31.1207 8.78616L31.0568 8.78731C30.9563 8.95322 31.0766 8.99289 30.8699 9.14919C30.716 9.26551 30.4837 9.56551 30.3227 9.51541C30.0581 9.43308 30.0222 9.37204 29.813 9.29187C29.7302 9.26013 29.644 9.21452 29.5596 9.17282C29.4706 9.12881 29.4019 9.08096 29.3235 9.03569C29.168 8.94599 29.0096 8.86994 28.837 8.78876C28.6871 8.71824 28.5479 8.67278 28.3862 8.72748C28.3388 8.74353 28.2862 8.75054 28.2584 8.7722C28.1133 8.88483 27.9554 9.11903 27.8635 9.2938L27.7387 9.54175C27.7131 9.63339 27.717 9.61084 27.724 9.70073L27.758 9.69839Z" fill="#1B1918"/>
<path fill-rule="evenodd" clip-rule="evenodd" d="M34.6583 9.57028C34.6417 9.51909 34.642 9.554 34.6176 9.49365L34.5891 9.43577C34.5739 9.4162 34.5877 9.43085 34.5704 9.41633C34.5482 9.34033 34.4086 9.14616 34.3476 9.07244C34.0999 8.77288 34.0159 8.61209 33.6316 8.79976L33.2494 8.99556C33.256 9.02193 33.3109 9.09778 33.3281 9.14414C33.339 9.17348 33.3663 9.31674 33.3667 9.35719C33.3692 9.57322 33.2889 9.56339 33.1779 9.65473C33.0642 9.74828 32.8623 9.79504 32.7305 9.6787C32.7079 9.65872 32.6878 9.64346 32.6668 9.62547C32.5671 9.54029 32.6164 9.58361 32.555 9.5002C32.5438 9.44576 32.5524 9.40042 32.539 9.37796C32.512 9.37131 32.2302 9.51901 32.2045 9.54904L32.5371 10.0649C32.5514 10.0898 32.5669 10.1204 32.5919 10.139C32.6207 10.2091 32.7889 10.4376 32.8462 10.5956C32.877 10.6805 32.9047 10.7108 32.8493 10.7745C32.6868 10.7703 32.7325 10.731 32.5668 10.4807L32.3986 10.2018C32.3378 10.1098 32.2774 10.0284 32.2189 9.93449L32.0464 9.66038C32.0003 9.56832 31.9606 9.62021 31.7845 9.47554C31.7052 9.41045 31.6347 9.32269 31.5597 9.25288C31.2624 8.97609 31.3664 9.15927 31.2818 8.85927C31.2647 8.79845 31.2512 8.71243 31.2956 8.65805L31.3595 8.65919C31.46 8.8251 31.3397 8.86477 31.5464 9.02109C31.7003 9.13742 31.9326 9.43739 32.0936 9.38731C32.3582 9.30499 32.3941 9.24395 32.6033 9.16376C32.6861 9.13201 32.7723 9.0864 32.8566 9.04472C32.9457 9.0007 33.0144 8.95285 33.0928 8.9076C33.2483 8.8179 33.4067 8.74184 33.5793 8.66065C33.7291 8.59013 33.8684 8.54467 34.0301 8.59937C34.0775 8.61541 34.13 8.62242 34.1579 8.64408C34.3029 8.75674 34.4609 8.99092 34.5528 9.16571L34.6776 9.41364C34.7032 9.50528 34.6993 9.48272 34.6923 9.57261L34.6583 9.57028Z" fill="#1B1918"/>
<path fill-rule="evenodd" clip-rule="evenodd" d="M31.5824 12.766C31.6114 12.7845 31.6242 12.805 31.6296 12.852C31.6677 12.8359 31.6555 12.8554 31.6915 12.8334C31.7329 12.8081 31.701 12.8149 31.7635 12.8027C31.7648 12.8011 31.7668 12.7965 31.7672 12.7979C31.7676 12.7992 31.7703 12.7937 31.7709 12.7927L31.7778 12.7807C31.7851 12.7661 31.7871 12.7578 31.7936 12.7439C31.8035 12.7227 31.8166 12.702 31.832 12.6767L31.985 12.4145L32.3078 12.0027C32.3392 11.9679 32.3302 11.9876 32.355 11.9423C32.3954 11.8686 32.4356 11.8916 32.4732 11.8485C32.4966 11.793 32.4635 11.7828 32.4989 11.7145C32.5432 11.6291 32.5543 11.5409 32.439 11.5173C32.3422 11.4975 32.3049 11.6108 32.1032 11.68C31.8643 11.7619 31.6182 11.8943 31.2817 11.8141C31.2023 11.7951 31.2821 11.8024 31.1666 11.7885C31.1348 11.7847 31.0764 11.762 31.0345 11.7545C30.9836 11.7453 30.9431 11.7317 30.894 11.7235C30.8402 11.7145 30.7813 11.721 30.7252 11.7177L30.697 11.7636C30.6716 11.8091 30.6614 11.8404 30.6348 11.8804C30.65 11.9292 30.6324 11.8703 30.6572 11.9067C30.6844 11.9468 30.6483 11.8808 30.6647 11.9189C30.6744 11.9416 30.668 11.9593 30.6827 11.9881C30.7107 12.0429 30.7479 12.0105 30.803 12.0496C30.9098 12.1254 31.0281 12.1999 31.1301 12.2974C31.2435 12.4056 31.2148 12.3509 31.3639 12.5209C31.4014 12.5636 31.4302 12.5871 31.4755 12.6434C31.5083 12.6844 31.5607 12.7202 31.5824 12.766Z" fill="#1B1918"/>
<path fill-rule="evenodd" clip-rule="evenodd" d="M33.1158 11.9406L33.0577 12.1484C33.0324 12.2459 33.0062 12.3338 32.9762 12.4218C32.9486 12.5031 32.9351 12.602 32.9055 12.6779C32.8852 12.8199 32.8332 12.9591 32.778 13.0743L32.4955 13.0068C32.3738 13.0144 32.1841 13.0038 32.0448 13.0169C31.8948 13.031 31.7428 13.0301 31.5952 13.0494C31.3486 13.0815 31.0183 13.1187 30.7749 13.1827C30.7359 13.1929 30.6113 13.2236 30.5874 13.2416C30.5377 13.279 30.5755 13.2728 30.4572 13.2959C30.4301 13.3012 30.4526 13.3053 30.4276 13.2979C30.3811 13.2843 30.2862 13.0315 30.2712 12.9927L30.1277 12.6535C30.0744 12.5416 30.0264 12.4399 29.9716 12.3301C29.9607 12.2876 29.8263 11.9223 29.7296 11.9052L29.6445 11.9148C29.6497 11.9577 29.6943 11.9984 29.73 12.1611L30.0141 12.8516C30.0764 12.997 30.2095 13.3843 30.3411 13.4813L30.3623 13.4954C30.52 13.6322 30.5076 13.4203 31.04 13.3247C31.2363 13.2894 32.0404 13.2202 32.2473 13.2278C32.7007 13.2443 32.5664 13.2712 32.8247 13.3029C32.8541 13.2804 32.9214 13.3221 32.9602 13.2327C33.0128 13.1115 33.0964 12.7508 33.1252 12.71L33.1243 12.6924L33.2685 12.0368C33.2798 11.983 33.3017 11.9347 33.3107 11.8829C33.3225 11.8153 33.3609 11.5539 33.3109 11.5055C33.2852 11.4807 33.3036 11.4954 33.2843 11.4906C33.2775 11.4889 33.2422 11.4936 33.2346 11.4961L33.1158 11.9406Z" fill="#1B1918"/>
<path fill-rule="evenodd" clip-rule="evenodd" d="M30.2947 8.39366C30.2512 8.38877 30.2614 8.38147 30.2269 8.3678C30.172 8.39395 30.1409 8.4367 30.1098 8.48938L30.0226 8.43402C29.9765 8.3915 29.978 8.4071 29.9173 8.3788C29.7578 8.30434 29.4065 8.13211 29.2422 8.11874C29.2494 8.14804 29.3383 8.26131 29.3413 8.26393C29.4743 8.37978 29.7853 8.5308 29.9518 8.60189C30.0076 8.62575 30.0618 8.67984 30.1067 8.67331C30.212 8.65807 30.2585 8.52557 30.2768 8.44036C30.2838 8.4077 30.2778 8.44323 30.2947 8.39366Z" fill="#1B1918"/>
<path fill-rule="evenodd" clip-rule="evenodd" d="M28.6154 9.73359L28.6016 9.88971C28.6317 9.93496 28.7301 10.0176 28.7833 9.97933C28.8096 9.96048 28.8499 9.93068 28.8589 9.90235C28.8659 9.88071 28.8595 9.86732 28.8633 9.85003C28.8677 9.83011 28.878 9.82545 28.8877 9.7942C28.8391 9.71066 28.7064 9.67148 28.6154 9.73359Z" fill="#1B1918"/>
<path fill-rule="evenodd" clip-rule="evenodd" d="M28.6632 9.53471C28.6228 9.52466 28.6256 9.51317 28.6209 9.4594L28.6744 9.47491C28.6887 9.50601 28.6866 9.50707 28.6632 9.53471ZM28.8011 9.54942C28.7648 9.46299 28.8084 9.39961 28.7076 9.35597C28.4962 9.2644 28.4465 9.52648 28.6236 9.62088C28.7073 9.66553 28.7241 9.63766 28.7961 9.55488C28.797 9.55373 28.7994 9.55123 28.8011 9.54942Z" fill="#1B1918"/>
<path fill-rule="evenodd" clip-rule="evenodd" d="M33.9485 9.12446C33.9021 9.17834 33.8529 9.162 33.8703 9.07331C33.9191 9.06695 33.9307 9.08985 33.9485 9.12446ZM33.8612 9.26585C34.0299 9.27498 34.0005 9.20591 34.0173 9.15605C34.0261 9.12981 34.0148 9.1436 34.0345 9.15434C34.0349 9.15453 34.0369 9.15668 34.0382 9.15634L34.0523 9.12496C34.0493 9.12343 34.046 9.12066 34.0455 9.12228C34.0454 9.12236 34.0265 9.11819 34.0201 9.09248C34.0379 9.08832 34.0047 9.09443 34.03 9.09502L34.0511 9.09248C34.0197 9.02359 33.9686 8.95441 33.8817 8.97811C33.8498 8.98682 33.7381 9.07363 33.769 9.15835C33.7982 9.23828 33.8244 9.21118 33.8612 9.26585Z" fill="#1B1918"/>
<path fill-rule="evenodd" clip-rule="evenodd" d="M33.759 9.3673C33.7524 9.46312 33.7739 9.52134 33.8268 9.55945C33.9144 9.62246 33.9442 9.55121 34.0248 9.5344C34.0121 9.42587 34.0491 9.40456 33.9532 9.34764C33.8326 9.27601 33.8106 9.33524 33.8068 9.33786C33.8007 9.34208 33.7948 9.34559 33.7874 9.35014C33.7753 9.35753 33.7673 9.36195 33.759 9.3673Z" fill="#1B1918"/>
<path fill-rule="evenodd" clip-rule="evenodd" d="M28.6477 9.02245C28.6073 9.04286 28.5954 9.03419 28.5792 9.08433C28.5636 9.13314 28.5693 9.16085 28.5902 9.19466C28.6251 9.25108 28.679 9.29716 28.7584 9.25387C28.7998 9.23126 28.8404 9.17997 28.8369 9.13594C28.83 9.04927 28.734 8.97876 28.6477 9.02245Z" fill="#1B1918"/>
<path fill-rule="evenodd" clip-rule="evenodd" d="M33.549 9.82024C33.607 9.81819 33.5907 9.80626 33.6377 9.79642C33.6388 9.76074 33.6366 9.75539 33.6317 9.72296C33.6231 9.66552 33.629 9.71037 33.6382 9.67385C33.5713 9.66457 33.629 9.70941 33.5381 9.66852C33.5302 9.69195 33.4545 9.7377 33.549 9.82024Z" fill="#1B1918"/>
<path fill-rule="evenodd" clip-rule="evenodd" d="M33.2168 9.97592L33.2689 10.0102C33.345 9.96633 33.3375 9.95632 33.3324 9.86076C33.2927 9.86292 33.2209 9.79855 33.2168 9.97592Z" fill="#1B1918"/>
<path fill-rule="evenodd" clip-rule="evenodd" d="M29.416 10.1348C29.4458 10.2043 29.4145 10.22 29.5046 10.2305L29.5569 10.1638L29.5444 10.1145C29.49 10.0964 29.521 10.0845 29.4457 10.0893C29.4376 10.1053 29.4278 10.1207 29.416 10.1348Z" fill="#1B1918"/>
<path fill-rule="evenodd" clip-rule="evenodd" d="M29.0646 10.1388C29.0963 10.1607 29.091 10.1625 29.1309 10.1661C29.1641 10.1326 29.1666 10.1299 29.1782 10.0847L29.1185 10.0481C29.0957 10.0405 29.1064 10.044 29.0815 10.0414C29.0648 10.085 29.059 10.0749 29.0646 10.1388Z" fill="#1B1918"/>
<path fill-rule="evenodd" clip-rule="evenodd" d="M27.3164 40.146L28.0083 51.0398L28.2266 51.2852L30.1951 51.002L30.635 50.7808L30.6298 50.5067L29.7326 48.7757L29.9836 46.5092L29.2792 40.0199L28.3942 39.5839L27.3164 40.146Z" fill="white"/>
<path fill-rule="evenodd" clip-rule="evenodd" d="M28.9985 51.1275C29.0925 50.7262 28.9562 49.3374 29.1121 49.0989C29.3821 49.1551 29.2132 49.2779 29.4299 49.9694C29.5064 50.2138 29.6597 50.7244 29.6774 50.9391C29.4933 50.9761 29.3503 51.0901 28.9985 51.1275ZM30.5415 50.382C30.7023 50.4744 30.6433 50.4038 30.7533 50.5683C30.8214 50.6703 30.8579 50.6953 30.788 50.7627C30.5843 50.9591 30.5502 50.5171 30.5415 50.382ZM29.5208 48.9579C29.8149 48.9476 29.7796 49.0348 30.1543 49.7152C30.2983 49.9765 30.4996 50.5173 30.4419 50.779L30.1112 50.8458L29.5271 49.0988C29.5249 49.0864 29.5208 49.0548 29.5199 49.0437L29.5208 48.9579ZM28.5102 49.0608C28.6776 49.1295 28.6726 49.0459 28.8756 49.1332C28.8862 49.2928 28.8923 49.4591 28.8827 49.6196L28.6634 50.9252L28.2093 50.9501C28.1222 50.7633 28.0697 50.8079 28.0836 50.5225C28.0973 50.2412 28.2284 49.613 28.375 49.45C28.4983 49.313 28.5712 49.0926 28.5102 49.0608ZM31.8882 47.7476C32.3569 47.7528 32.8714 47.9424 33.3493 48.0775C33.4322 48.3919 33.3095 48.3916 33.2997 48.4007C33.2922 48.4076 33.2742 48.4192 33.2664 48.4252L33.7272 48.619C33.6621 48.2929 33.6094 47.9781 33.9571 48.2905L33.7424 49.0785L31.7978 49.2301C31.4619 49.2437 31.6152 49.1376 31.3363 49.0152C31.5343 48.8966 32.0882 49.0705 32.4908 49.0678C32.1204 48.8796 31.5292 48.9122 31.1392 48.7714C31.2472 48.5396 31.2723 48.6541 32.2491 48.8876C32.5834 48.9675 33.3377 49.0754 33.568 48.9617C33.3311 48.7085 33.55 48.9359 32.937 48.8577C32.5467 48.808 31.4071 48.6529 31.1815 48.3926C31.0959 48.3057 31.1473 48.4807 31.1643 48.2818C31.1768 48.1358 31.1761 48.1945 31.2022 48.1023C31.258 47.9053 31.2835 47.9113 31.3232 47.7301C31.8799 47.82 32.0181 48.01 32.4946 48.1025C32.3277 47.969 32.0649 47.9079 31.8882 47.7476ZM30.8725 47.6886C30.9707 47.8834 31.0283 47.8232 31.1404 47.9444C31.0787 48.0519 31.0421 48.2311 31.0006 48.3728C30.5975 48.3275 30.6402 48.275 30.5312 47.9896C30.6581 47.8146 30.6964 47.8545 30.8144 47.6773C30.6548 47.7409 30.6315 47.7637 30.4798 47.8168C30.5174 47.6256 30.4975 47.6507 30.6339 47.5258C30.7134 47.4531 30.668 47.4796 30.7821 47.4281C30.9257 47.3634 30.7654 47.414 30.9995 47.3629L30.8725 47.6886ZM31.9052 46.4847L32.1799 45.8688C32.3781 46.0402 32.1035 45.6822 32.2315 45.9644C32.2377 45.9779 32.2607 46.033 32.2672 46.048L32.3081 46.143C32.3125 46.0849 32.1755 45.7559 32.9014 45.9036C33.2135 45.9671 33.0972 46.2636 33.1143 46.5468C33.162 47.3366 32.9281 47.3191 33.1676 47.6409C33.2113 47.6996 33.2458 47.6783 33.2592 47.8146C33.0627 47.7658 33.0189 47.7718 32.889 47.6512C32.8248 47.8142 32.9575 47.4566 32.8738 47.724C32.8569 47.7781 32.8959 47.7193 32.8442 47.7976C32.449 47.6398 32.0379 47.6338 31.8403 47.5497C31.8329 47.5466 31.8178 47.5371 31.8115 47.5341L31.6584 47.4586C31.4192 47.2252 31.7724 47.0715 31.7848 47.0603L31.8294 47.0136C31.9286 46.8496 31.7814 46.7633 32.1525 46.5016C32.1405 46.4932 32.1155 46.4762 32.1099 46.4902L31.998 46.4752C31.8382 46.4715 32.0192 46.6139 31.9052 46.4847ZM27.2068 39.4628C27.2981 39.4976 27.3768 39.4715 27.4277 39.5803C27.566 39.8756 27.3965 39.7348 27.3665 39.778C27.2086 39.7125 27.3047 39.8638 27.2165 39.6628C27.0886 39.3713 27.2177 39.6166 27.2068 39.4628ZM29.1482 38.8616C28.8604 38.9636 28.6997 38.8606 28.5688 38.7798C28.6202 38.5535 28.9928 38.0181 29.255 37.9169L29.1482 38.8616ZM18.2618 35.8022C18.4714 35.8171 18.6761 35.8382 18.8133 36.0191C18.9099 36.1466 18.9478 36.3114 18.8272 36.4213C18.682 36.5536 18.2618 35.8022 18.2618 35.8022ZM29.5771 32.8386L29.583 33.1682C29.2617 33.1133 29.4563 33.2592 29.2707 32.9498C29.1621 32.7686 29.1848 32.8614 29.1611 32.6214L29.5771 32.8386ZM26.3555 28.5991C26.3647 28.9069 26.7668 29.3084 27.0636 29.8084C27.1975 30.034 27.2603 30.2422 27.3851 30.4388C27.7792 31.0599 28.0131 31.7211 28.4718 32.3126C29.3107 33.3944 29.3505 33.8281 29.3356 35.3487C29.3207 36.8738 29.4605 36.75 28.6352 37.5821C28.4658 37.7528 28.3316 37.9389 28.1938 38.1756L27.5925 39.0167C27.461 39.207 27.5227 39.2383 27.3171 39.2565L26.902 37.3334C26.5462 36.1565 26.3635 35.1994 26.1679 33.9914C25.9507 32.6496 25.8354 31.9866 26.0088 30.7493C26.0357 30.5574 25.9949 29.6177 26.2001 29.0466C26.2554 28.8927 26.3712 28.6541 26.3555 28.5991ZM20.3851 23.4986C20.5138 23.4296 20.4848 23.3652 20.6101 23.3128C20.5598 23.4623 20.6161 24.1699 20.6626 24.3707L21.0472 28.7976C21.0373 28.7862 21.0245 28.7513 21.0196 28.7616C21.0094 28.783 20.9765 28.7099 20.9591 28.6957C20.8657 28.6196 20.9345 28.645 20.8038 28.6043C20.7995 28.9847 20.7837 28.6831 20.8455 28.9797C20.877 29.1306 20.912 30.2088 20.9967 30.5845C21.1014 31.049 20.9779 31.7378 20.8055 32.0953L19.0462 35.9607C18.1977 35.3787 17.7803 36.341 17.4052 33.1586C17.2856 32.1441 17.2608 29.7052 17.4204 28.7701C17.5333 28.1085 17.7753 27.6883 18.035 27.0902C18.269 26.5514 18.4963 26.0096 18.7145 25.4838C18.922 24.9841 19.2059 24.4817 19.4497 23.9352L20.3039 22.4925C20.3954 22.5963 20.3599 22.5168 20.4193 22.6852C20.4416 22.7484 20.454 22.8498 20.4491 22.9484C20.4373 23.1803 20.3773 23.2341 20.3851 23.4986ZM25.2755 30.1282C25.2365 29.9989 25.0555 29.9641 25.6102 29.7662L25.5871 30.8741C25.5899 30.8947 25.7267 31.4882 25.5097 31.1414C25.3441 30.8769 25.5285 30.4878 25.2855 30.2615C25.7015 33.6224 25.3859 33.2361 26.337 36.7475C26.4841 37.2904 26.5051 37.9916 26.6508 38.5401C26.7324 38.8471 27.0103 39.4853 27.0237 39.7449C27.0457 40.1683 26.8311 40.0552 27.0846 40.3273C27.281 40.2728 27.0999 40.3145 27.3164 40.1459C27.228 40.427 27.2336 40.1973 27.3079 40.4652L27.1432 40.5703C27.1372 40.5769 27.1235 40.5945 27.1167 40.6085C27.3415 41.0513 27.4203 43.259 27.3394 43.9374C27.2795 44.4396 27.3621 44.7059 27.364 45.1604C27.4977 45.2188 27.3325 45.1684 27.428 45.1647C27.6957 45.1545 27.2175 45.0228 27.4687 45.1604L27.5883 46.7842C27.6091 47.2289 27.7822 48.3069 27.746 48.5611L27.7952 48.813C27.8003 48.8251 27.8096 48.8406 27.8141 48.8542C27.8189 48.8689 27.8251 48.8849 27.8288 48.9012L27.7519 49.5878C27.7128 50.1712 27.4876 51.4025 27.554 51.6517C27.5974 51.8144 27.5442 51.6995 27.6268 51.8024C27.7018 51.6127 27.643 51.4554 27.786 51.3009C27.9605 51.1123 27.761 51.3087 27.9366 51.1844C28.1583 51.45 29.5994 51.144 30.1029 51.1544C30.1413 51.2852 30.2053 51.4212 30.2191 51.5107C30.1903 51.18 30.0732 50.9959 30.5044 50.9364C30.5143 51.1197 30.4576 51.3474 30.542 51.3016C30.6078 51.2658 30.5855 51.3366 30.6275 51.1588C30.6466 51.0781 30.6292 50.9829 30.6234 50.8995C30.8752 50.8629 31.0279 50.8426 31.1931 50.7327C31.1498 50.5852 30.8843 50.166 30.7538 50.0152L30.6704 50.2837C30.539 50.0075 30.3428 49.9088 30.3081 49.5467C30.3187 49.5582 30.3327 49.5619 30.3378 49.5831L30.5105 49.7528C30.4936 49.28 30.2574 49.2998 30.1571 48.8513C30.4019 48.8577 30.3988 48.8367 30.5867 48.9186L30.7695 48.566C30.8337 48.6944 31.1302 48.9764 31.2485 49.1052C31.4924 49.3708 31.4221 49.3809 31.8492 49.3363C32.539 49.2643 32.9096 49.1666 33.6988 49.2978L33.672 49.8118C33.7837 49.6378 33.7539 49.482 33.8661 49.3227C34.0452 49.0685 34.4548 48.6129 34.3805 48.2534C34.3801 48.2514 34.3088 48.0571 34.2944 47.9802C33.9985 47.9948 34.0691 48.1727 33.7714 47.9618C33.5066 47.7742 33.6631 47.7754 33.5435 47.4185C33.3496 46.8402 33.3776 46.6233 33.4787 46.0035C33.3252 46.0989 33.255 46.0633 33.3037 46.3384L33.2497 45.9346C33.422 45.9815 33.4011 46.0104 33.6293 45.9557C33.4922 45.6042 33.4869 45.8293 33.603 45.1925C33.6551 44.9067 33.7046 44.6048 33.7522 44.319L34.1629 41.8849C34.2005 41.5818 34.1557 41.7488 34.2019 41.57C34.3947 40.8236 34.4081 40.1394 34.5382 39.3705C34.3152 39.476 34.393 39.3861 34.3573 39.67C34.2807 39.5568 34.4318 39.3408 34.349 39.162C34.3351 39.173 34.3182 39.1756 34.313 39.2009C34.3079 39.2259 34.286 39.2303 34.2794 39.2409L33.7981 41.0898C33.7551 41.5931 33.7651 41.269 33.8944 41.403C33.965 40.9829 34.2323 40.0707 34.2458 39.7519C34.2261 40.2881 34.1119 40.6587 34.0115 41.1664C33.9526 41.4644 33.9899 41.662 33.9602 41.9666C33.9363 42.212 33.8724 42.4652 33.8327 42.7293C33.7264 43.4373 33.5708 45.1915 33.3859 45.7334C32.9592 45.6762 32.6661 45.5049 32.1307 45.4731C31.8417 45.4559 31.9438 45.3912 31.6612 45.5444C31.6279 45.8126 31.6515 45.603 31.7603 45.753C31.7169 45.9637 31.6513 46.019 31.5957 46.2073C31.5146 46.481 31.5868 46.3247 31.4548 46.5946C31.1564 46.1675 31.4524 46.6393 31.112 46.42C31.1296 46.2134 31.1188 46.2419 31.2024 46.1093C31.2617 46.1012 31.5676 46.3307 31.4283 45.8953L31.3583 45.7712C31.3552 45.7661 31.3456 45.7516 31.3393 45.7417C31.3291 45.7547 31.3164 45.7598 31.3118 45.7828C31.2516 46.0863 30.8603 46.0507 30.9785 46.4847C31.0996 46.7443 31.3181 46.6991 31.1198 47.1009C30.7742 47.1684 30.8964 46.7566 30.5545 46.5434C30.6093 46.7041 30.637 46.6998 30.7103 46.8149L30.7137 47.3063C30.5396 47.4544 30.1679 47.5381 29.9653 47.5779C29.9318 47.2056 29.8909 46.7976 29.9835 46.5092C30.1602 45.9585 29.7486 46.6627 29.773 44.9222C29.7865 43.9607 29.555 42.2079 29.5769 40.9489C29.5797 40.7935 29.5896 40.5547 29.5527 40.4111C29.5091 40.2411 29.4081 40.1218 29.2792 40.0199C29.2428 40.2744 29.2278 40.4012 29.2043 40.6938C29.186 40.9217 28.9947 41.1288 28.9932 41.2059L29.1738 43.5945C29.1978 44.0741 29.2168 43.9437 29.3347 44.2738L29.3859 44.5417C29.3972 44.6151 29.3626 44.5033 29.3998 44.6172L29.4176 44.6522C29.4216 44.6603 29.4346 44.6816 29.4392 44.6907C29.5244 44.8584 29.4163 44.6467 29.4756 44.7674C29.5387 44.8959 29.5024 44.796 29.5426 44.9012C29.6823 45.2673 29.7213 46.4361 29.7219 46.9061C29.5921 47.015 29.4628 46.9766 29.3028 47.0773C29.4351 47.1462 29.59 47.0823 29.7365 47.1218C29.8073 47.3223 29.797 47.4433 29.7328 47.6396C29.3451 47.5983 29.5809 47.562 29.4374 47.3409C29.4269 47.7789 29.4075 48.0971 29.4758 48.5126C29.4246 48.4138 29.0735 48.3574 28.9541 48.3322C28.6801 48.2743 28.6662 48.4455 28.3296 48.4228C28.2799 48.3491 28.376 48.4895 28.2897 48.3288C28.2297 48.2173 28.2739 48.2865 28.2257 48.2214C28.1266 48.0876 28.1585 48.1638 28.053 48.0497L27.9579 46.7982C27.7913 46.9584 27.9095 46.7567 27.8456 46.9665C27.7974 47.1246 27.855 47.3753 27.8711 47.5311C27.8984 47.795 27.8835 48.063 27.8798 48.3279C27.8771 48.0157 27.8405 47.7939 27.7933 47.5164C27.7506 47.2651 27.7301 46.9313 27.7116 46.6546C27.6954 46.4089 27.5548 45.0748 27.6073 44.9187C27.7128 45.1088 27.6542 45.3903 27.7027 45.5865C27.7355 45.719 27.6827 45.5628 27.7355 45.698C27.801 45.8664 27.7154 45.7338 27.8253 45.86L27.8959 44.6934L28.0178 44.969L28.1699 44.4947C28.243 44.155 28.2011 44.0652 28.1219 43.6796L27.601 40.9655C27.5038 40.3929 27.5914 40.1521 28.0228 39.9838C28.4806 39.8052 28.9858 39.9748 29.4401 40.0264L29.2325 39.5646C28.8281 39.5634 28.4826 39.632 28.1007 39.5415C28.0443 39.5281 28.0611 39.4204 27.8622 39.6192C27.9172 39.2141 28.1073 38.767 28.3947 38.5308C28.2998 38.8144 28.1593 38.8177 28.074 39.141C28.0858 39.1491 28.108 39.1411 28.1137 39.1571C28.1819 39.3487 28.1129 39.1651 28.1909 39.1825C28.5851 39.2706 28.9316 39.0915 29.3458 39.0744C29.3751 38.7999 29.3706 38.5613 29.4071 38.292C29.4418 38.0372 29.5153 37.7362 29.526 37.5179C29.1672 37.4814 28.7906 38.1737 28.5162 38.3547C28.5588 38.2234 28.8952 37.7363 29.0089 37.5941C29.4757 37.0104 29.5811 37.0964 29.5882 37.0944L29.7232 36.6875C29.7948 36.4757 29.6788 36.5086 29.6387 36.2509L29.5768 33.346C29.5893 33.1708 29.6646 32.9878 29.5771 32.8386C29.4725 32.5363 29.4144 32.7444 29.1824 32.3919C29.0833 32.2414 29.1248 32.279 29.0072 32.1422C28.8951 32.0118 28.8801 32.0037 28.7953 31.8764C28.4696 31.3878 28.6019 31.6854 28.2733 31.0742C27.9083 30.3957 27.2414 29.7467 27.1834 28.9667C27.1386 28.3639 27.0721 28.4469 26.8423 28.4439C26.9773 28.4936 26.9459 28.4677 27.0685 28.5381L27.0794 28.9172C26.9044 28.7669 26.5258 28.12 26.5128 28.0853L26.4635 27.9304C26.1107 28.0355 25.9705 28.8966 25.4402 29.3618L24.7441 28.8193C24.5836 28.6919 24.5901 28.7052 24.5096 28.5467C24.5844 28.3691 24.4375 28.4167 24.6875 28.3942C24.1578 28.3576 24.2033 28.1256 24.0599 28.0502C23.7773 27.9286 23.9568 28.1319 23.6946 27.9949C23.6847 27.9898 23.6702 27.9784 23.6606 27.9723C23.6506 27.966 23.6371 27.9533 23.6273 27.9464L23.3504 27.7416C23.0137 27.45 23.2001 27.4579 22.6961 27.2826C22.6618 26.5753 22.787 25.6781 22.8831 24.9747C22.9277 24.6484 23.035 24.5247 23.059 24.1996L22.6687 25.4798C22.594 24.0866 22.8235 23.6158 23.264 22.5784C23.833 21.2385 24.3795 21.368 24.4804 20.7396C24.4891 20.6856 24.4892 20.6501 24.4674 20.6059C24.4162 20.5019 24.4261 20.5358 24.3567 20.4878C24.1449 20.6979 24.0194 20.9221 23.841 21.1109C23.7238 21.2349 23.672 21.2978 23.555 21.4254C23.2715 21.735 22.1823 22.7818 22.1191 22.9486C22.0705 23.4742 22.3184 23.3905 22.2512 23.9644C22.2295 24.1493 22.2004 24.3554 22.1661 24.5466C22.1306 24.7448 22.1603 25.3808 22.0256 26.1498C21.9604 26.5213 21.9251 26.95 21.9785 27.3716L22.418 27.5247C22.3038 27.3678 22.2889 27.3831 22.1769 27.2614C22.2846 27.2276 22.4245 27.2076 22.5372 27.2818C22.6428 27.3513 22.6484 27.2924 22.6474 27.4503C22.6453 27.7761 22.647 27.547 22.5243 27.6365L23.3237 28.3661C23.1287 28.5459 22.2527 29.2557 21.9811 29.3699C21.7051 29.4861 21.8797 29.3711 21.644 29.3776C21.3107 29.387 21.7473 29.4702 21.5415 29.3895L21.2855 27.9076C21.2845 27.8985 21.2829 27.8728 21.283 27.8606C21.283 27.8542 21.2829 27.8367 21.2832 27.8293C21.2837 27.8149 21.2879 27.7667 21.2889 27.7481C21.3218 27.164 21.1196 26.8301 21.0967 26.6745L20.9932 22.9503C20.9422 22.2809 21.0446 21.4674 21.5655 21.0604C22.2946 20.4908 21.8163 20.7597 22.2301 20.3403C22.3329 20.2361 22.5295 20.0456 22.6156 19.9389C22.3702 19.8457 22.2851 20.0709 22.0774 20.2463C21.8878 20.4064 21.7249 20.4922 21.5321 20.6721C21.5826 20.5373 21.6289 20.4415 21.7262 20.3228C21.8713 20.146 21.8826 20.2212 21.9695 19.9807C21.6197 20.166 21.7476 20.2775 21.4831 20.4874C21.3078 19.8378 21.4264 20.0262 21.7311 19.6033C21.9363 19.3185 22.2553 19.2125 22.6712 19.145L22.7365 19.2654C22.7621 19.3202 22.7661 19.3409 22.7902 19.3922C22.897 19.62 23.1617 19.8473 23.3731 20.035C23.3265 19.6694 23.1111 19.6793 22.9817 19.3952C22.8357 19.0747 22.8613 18.8251 22.7196 18.6472C22.6849 19.1524 21.9373 18.9191 21.2783 19.4666C21.2532 19.1704 21.174 18.9436 21.1661 18.735C21.5955 18.5085 21.3306 18.2967 22.5387 18.0357C22.5624 17.9429 22.6847 17.9891 22.3699 17.9521C22.4111 17.9148 22.4166 17.8419 22.4406 17.8014C21.9021 17.883 21.3642 18.1027 21.0711 18.3959L21.1163 18.0542C21.1184 18.0431 21.1213 18.0249 21.1233 18.0148L21.3578 17.5378C21.4787 17.2907 21.7919 16.9348 22.0833 16.9176C22.0747 16.8994 22.0447 16.8071 22.0434 16.7968L22.4157 16.7242C22.5421 17.2912 22.5598 17.1516 22.6796 17.5214C22.7603 17.7703 22.7568 18.0259 22.835 18.1875C22.935 18.3942 22.8956 18.2905 22.9632 18.3723C23.0184 18.0011 22.6056 16.6586 22.5736 16.6164C22.4365 16.4354 22.4808 16.6332 22.1295 16.2977C21.9409 16.5219 22.2022 16.4525 21.9091 16.4586C21.6349 16.4642 21.2984 16.1743 21.0307 16.7986C20.4797 18.0834 20.6854 17.8652 20.7204 18.5317C20.7371 18.8499 20.644 18.7125 20.7611 18.9626C20.8831 19.2233 20.8827 19.7665 20.9534 20.2562C21.099 21.2642 21.1678 20.9346 20.8026 21.2494C20.7017 21.3365 20.742 21.3121 20.6505 21.4132L20.2195 21.8306C19.7282 22.3496 20.2964 21.4963 19.8721 22.1307C19.7713 22.2814 19.798 22.2305 19.7159 22.3415C19.385 22.7884 19.0908 23.1936 18.9029 23.7697C19.1271 23.6151 19.1452 23.4096 19.4305 22.9595L19.8007 22.3692C19.982 22.1459 19.772 22.2779 20.0425 22.1907C19.9791 22.6003 19.5764 22.8951 19.2887 23.4252C19.0628 23.8412 18.8173 24.2994 18.5758 24.7018C18.6249 24.2975 18.9772 23.9665 18.879 23.7844C18.5148 24.3816 18.3482 25.105 18.0664 25.8052C17.9935 25.9863 17.9353 26.1466 17.8711 26.3271C17.8425 26.4074 17.808 26.5185 17.7665 26.5921C17.649 26.8003 17.6762 26.6907 17.6094 26.7958C17.3954 27.1321 17.4657 27.5182 17.4448 27.9448C17.2893 28.305 17.3708 27.8844 17.2455 28.2458C17.1793 28.4366 17.241 29.3052 17.2427 29.4685L17.0623 30.4391C17.0612 30.4476 17.0568 30.4644 17.0555 30.4728C17.0542 30.4813 17.05 30.4984 17.0487 30.507C17.0474 30.5158 17.0441 30.5332 17.043 30.5424C17.0311 30.6386 17.0461 30.6071 17.0271 30.752C16.9548 31.3079 17.0538 34.0158 17.1292 34.2076C17.1353 34.1973 17.1389 34.1658 17.1401 34.1735L17.1681 34.0722C17.191 33.9956 17.1346 34.0588 17.2291 33.9179C17.2367 34.1288 17.344 34.6515 17.5005 34.8029C17.3602 35.1473 17.5213 34.6608 17.3599 34.9947C17.4495 35.1039 17.4362 35.1185 17.4919 35.2388C17.874 35.3542 17.3753 34.8438 18.0373 35.8365C18.2846 36.2074 18.3069 36.3212 18.6801 36.6128C18.4851 36.7054 18.2829 36.6276 18.1257 36.581C18.1309 36.5955 18.1396 36.9093 18.5711 36.8575L18.9526 36.6897C18.9661 36.6822 18.9832 36.6724 18.9956 36.6654L19.0854 36.6128C19.3013 35.8446 19.9245 34.611 20.2723 33.9779L21.1147 32.3422C21.1232 32.3323 21.1373 32.3213 21.1459 32.3117C21.2368 32.2111 21.2331 32.2735 21.2898 32.0972C21.4195 31.6934 21.3194 31.7125 21.6812 31.5332C21.6145 31.4176 21.6302 31.2047 21.6888 31.0154C21.7512 30.8143 21.8517 30.7563 22.0322 30.6536C21.9121 30.5662 21.9168 30.5296 21.9235 30.297C21.9256 30.2275 21.9439 29.9494 21.9483 29.9302C22.0366 29.5455 22.8154 29.2286 23.1484 29.0887C23.4226 28.9734 23.5349 28.8788 23.7948 28.7756C23.8491 28.8314 23.8133 28.77 23.7965 28.8671L23.9908 28.9716C24.18 29.0412 24.8944 29.961 25.2755 30.1282Z" fill="#1B1918"/>
<path fill-rule="evenodd" clip-rule="evenodd" d="M20.3856 23.4986C20.3777 23.2341 20.4378 23.1803 20.4495 22.9484C20.4545 22.8498 20.4421 22.7484 20.4197 22.6852C20.3604 22.5168 20.3959 22.5963 20.3044 22.4925L19.4502 23.9352C19.2064 24.4817 18.9225 24.9841 18.715 25.4838C18.4968 26.0096 18.2695 26.5514 18.0355 27.0902C17.7758 27.6883 17.5338 28.1085 17.4209 28.7701C17.2613 29.7052 17.2861 32.1441 17.4057 33.1585C17.7808 36.3409 18.1982 35.3787 19.0467 35.9607L20.806 32.0952C20.9784 31.7378 21.1019 31.049 20.9972 30.5845C20.9125 30.2088 20.8775 29.1306 20.846 28.9797C20.7842 28.6831 20.8 28.9847 20.8043 28.6043C20.935 28.6449 20.8662 28.6196 20.9596 28.6956C20.977 28.7099 21.0098 28.783 21.0201 28.7615C21.025 28.7512 21.0378 28.7861 21.0477 28.7976L20.6631 24.3707C20.6166 24.1699 20.5603 23.4623 20.6106 23.3128C20.4853 23.3652 20.5143 23.4296 20.3856 23.4986Z" fill="white"/>
<path fill-rule="evenodd" clip-rule="evenodd" d="M35.8029 29.8108C35.8075 29.8131 35.8172 29.8012 35.8179 29.8065C35.839 29.9673 35.8434 29.8037 35.8453 29.8052C35.8462 29.8059 35.8563 29.8105 35.8573 29.8118L35.8784 29.8509C36.0712 30.4023 35.8651 31.2388 35.9364 31.4684C35.9819 31.6148 36.0162 31.4249 36.0237 31.7366C36.0248 31.7843 36.0115 31.8523 36.0006 31.8838C35.9274 32.0981 35.9629 31.9789 35.8949 32.0561L35.5791 31.268C35.519 31.0867 35.6411 31.1483 35.4522 31.0929C35.4936 31.3963 35.5781 31.6778 35.6801 31.9096C35.8058 32.1951 35.9241 32.4134 35.9205 32.8213L35.151 35.9671C35.071 36.355 35.248 36.0391 34.7421 36.7031L34.0309 37.5683C33.9078 37.6814 34.1163 37.5592 33.8998 37.6638C33.7737 37.5063 33.867 37.4717 33.7129 37.1902L33.5843 36.922C33.5279 36.7867 33.6245 36.7228 33.0741 36.6947C32.7681 35.8914 32.9354 35.2852 33.1 34.3148L33.1948 33.9632C33.2128 33.8453 33.2042 33.7883 33.2453 33.562C33.2531 33.8566 33.3154 33.6804 33.3563 33.6633L33.4276 33.0888C33.7068 33.2087 33.2517 33.1816 33.7029 33.2002C33.5171 32.5371 33.335 32.7449 33.8475 31.6941C33.8142 31.8475 33.796 31.8489 33.7418 31.9967C33.6959 32.1218 33.6633 32.2475 33.7481 32.3666C34.0141 32.1797 33.8038 32.0286 34.0137 31.8186C34.1611 31.6712 34.0356 31.851 34.2239 31.6766C34.328 31.5801 34.6161 30.9933 34.7019 30.8243C34.986 30.2642 35.1586 30.0878 35.4524 29.6464C35.5643 29.4783 35.5514 29.3854 35.7487 29.2542C35.8159 29.4584 35.8709 29.5723 35.8029 29.8108ZM27.2471 27.4742L27.631 28.0293C27.5702 28.0045 27.1857 27.7912 27.1626 27.7007C27.0659 27.3221 27.1877 27.5568 27.2471 27.4742ZM30.9026 22.7089C30.8843 22.5733 30.9056 22.6539 30.8573 22.5425C30.8522 22.5307 30.828 22.5276 30.8237 22.5013C30.8193 22.4748 30.7971 22.4773 30.784 22.465L30.7676 22.6201L30.4071 22.6189C30.3357 22.9332 29.4522 24.0517 29.2224 24.384C29.1168 24.5367 28.9717 24.821 28.8121 24.914C28.5782 24.8311 27.9724 24.2027 27.8123 24.1567C27.5943 24.0942 27.7537 24.369 27.3124 23.964L25.2475 22.2981C25.1799 22.2403 25.1851 22.2562 25.1477 22.2188C24.9875 22.0588 25.0296 22.221 25.0375 21.9103L24.9078 21.9805C24.7832 21.9815 24.5711 21.4668 24.5752 21.3452C24.5772 21.285 24.6663 21.0316 24.6801 20.9977C24.3832 21.1078 24.5633 21.0533 24.3769 21.2852C24.2605 21.4299 24.2272 21.4304 24.1283 21.5967L23.8658 22.097C23.8388 22.2092 23.8057 22.1924 23.8762 22.2626C24.1487 22.3786 24.0297 22.2544 24.1067 22.2344C24.2373 22.2004 24.0966 22.2101 24.2771 22.2139C24.5599 22.2199 24.4588 22.1467 24.7376 22.0939C24.7352 22.3562 24.6363 22.4398 24.5057 22.6145C24.3492 22.8237 24.3386 22.8796 24.2454 23.069C24.4324 23.4212 24.3814 22.9904 24.3702 23.4257C24.3676 23.5285 24.3107 23.591 24.3578 23.6969C24.6657 23.6916 24.4328 23.7114 24.5399 23.5627L24.625 23.4366C24.6303 23.4109 24.6453 23.4063 24.6587 23.3942C24.885 23.4946 24.8018 23.4741 24.9492 23.5996C24.8294 23.3875 24.6235 23.3106 24.6335 23.0123C24.6411 22.7842 24.8192 22.5656 24.8696 22.3122C25.265 22.4643 25.5793 22.8234 25.9001 23.0914C26.2355 23.3716 27.6261 24.3971 27.7456 24.6826C27.8684 24.976 27.6271 24.8611 27.9533 25.1875L28.3691 25.5882L27.8251 26.4226C27.6092 26.8117 27.6041 27.1096 27.2078 27.0048C27.2644 27.2114 27.3299 27.2077 27.2711 27.3689C27.116 27.2152 26.9851 27.1226 26.7655 26.9033C26.5706 27.0068 26.6669 26.9731 26.4507 27.0201C26.5302 27.3987 26.8525 27.3835 26.9607 27.4803C27.2161 27.7086 26.9595 27.4915 27.0203 27.7474C27.0639 27.9305 27.6384 28.5181 27.8081 28.7113L29.5116 30.473C29.3165 30.5615 29.5514 30.448 29.3909 30.4858C29.3819 30.4879 29.3579 30.4959 29.3501 30.4981L29.2596 30.5331C29.5235 30.8582 30.9504 32.0008 31.2199 32.1033C31.251 32.038 31.2412 32.0921 31.2401 32.0056C31.2399 31.9899 31.2125 31.8627 31.2091 31.8421C31.3862 31.8559 31.3989 31.887 31.4928 31.8656L31.7985 31.6589C31.9531 31.5182 32.5885 31.0838 32.7924 31.0192C32.9024 31.4635 33.1882 31.9644 33.0845 32.4212C32.8819 33.3134 32.6409 34.5643 32.6037 35.4702C32.5683 36.3312 32.7407 36.4553 32.7921 37.0341C32.9726 37.1331 32.8963 36.8927 32.9828 37.1792C33.0245 37.317 32.9747 37.3802 32.9293 37.4746C32.8018 37.3932 32.8148 37.3047 32.7248 37.1755C32.5782 37.3592 32.5742 38.0666 32.5552 38.3584L32.8309 38.4788C32.8434 38.8557 32.6722 39.1835 32.6967 39.6271C32.723 40.105 32.819 39.7708 32.8272 40.1659C32.8353 40.5549 32.7007 40.3636 32.804 40.6949C32.9484 40.5658 32.8642 40.7564 32.9626 40.451C32.9627 40.4504 32.9904 40.249 32.9909 40.2443C33.0066 40.1151 33.0211 39.9594 33.0413 39.8134C33.0854 39.4928 33.1489 39.2882 33.1671 38.9069C33.4416 38.9085 33.8221 38.9637 34.0568 39.0722L34.1094 39.1076C34.1135 39.1094 34.1261 39.1165 34.1302 39.1174L34.6786 39.1009C34.6031 39.1034 34.5233 39.0782 34.4158 39.0308C34.195 38.9336 34.3053 39.0083 34.1944 38.8675C34.1162 38.7682 34.006 38.4996 34.0308 38.3751C34.0748 38.154 34.6638 37.5326 34.8222 37.3791C34.8311 37.3705 34.8439 37.3575 34.8528 37.3491L34.9731 37.2435C35.1886 37.1073 35.3293 37.1402 35.5374 36.5953C35.606 36.4157 35.5663 36.4305 35.5803 36.34L35.7121 35.8783C35.7405 35.3549 36.1012 34.0209 36.2569 33.4663L36.454 32.8228C36.5391 32.6733 36.6035 32.5688 36.559 32.2991C36.434 31.5421 36.4563 31.8715 36.6389 31.1576C36.8515 31.4068 36.5366 31.3349 36.818 31.4874C37.0426 31.3812 37.0103 30.8983 37.0643 30.6467C37.126 30.3592 37.1966 30.0888 37.2732 29.776C37.3478 29.4713 37.381 29.1667 37.5738 29.0009C37.7548 28.8452 37.9673 28.6612 37.9229 28.3661C37.8735 28.3634 37.7259 28.4824 37.8218 28.193C37.8874 27.9949 37.9864 27.9737 38.1124 27.9189C38.1686 28.1194 38.099 28.3121 38.2025 28.4544C38.331 28.2013 38.1501 27.8256 38.388 27.3664C38.391 27.3608 38.3962 27.3449 38.3997 27.3393L38.5941 27.1623C38.5913 26.8623 38.593 26.8676 38.6302 26.6207C38.6901 26.2245 38.6296 26.7055 38.5519 26.296C38.5383 26.224 38.5663 25.9659 38.5724 25.8405C38.5923 25.4307 38.5413 25.5448 38.525 25.3853C38.5223 25.359 38.5123 25.353 38.5034 25.3382C38.458 25.405 38.4751 25.353 38.4434 25.4839L38.4334 25.9449C38.4441 26.1688 38.4222 26.6101 38.2552 26.8585L38.0623 27.1527C38.0549 27.163 38.0188 27.2064 38.0043 27.2202C37.9443 26.7672 38.5478 24.7083 38.3777 24.3944L38.3125 24.3473C38.3098 24.3465 38.2937 24.3479 38.2912 24.3479L38.2552 24.3791C38.2547 24.3747 38.2471 24.3924 38.2519 24.3933C38.2078 23.7258 38.3453 23.9099 38.043 23.4686C38.0358 23.458 38.0051 23.4076 37.9935 23.3913C37.8081 23.6075 37.8712 23.8625 37.8407 24.1533C37.7943 24.5945 37.5028 25.6284 37.3702 26.1183C37.4708 25.747 37.5 25.4233 37.5865 25.0132C37.6291 24.8115 37.6487 24.6927 37.6828 24.4618C37.7003 24.3425 37.7353 24.2292 37.7348 24.1469L37.6607 23.8864C37.5379 23.9574 37.5362 24.0832 37.4972 24.2388C37.4671 24.3586 37.425 24.5205 37.4015 24.6237L36.2163 29.5648C36.2538 29.1752 36.1554 29.4696 36.0768 29.1095L36.0493 28.7414C36.0161 28.5762 35.885 28.602 35.7151 28.664L35.3662 28.7909C35.4318 28.6201 35.3775 28.7102 35.5167 28.5692C35.7046 28.3791 35.8479 28.3168 35.9719 28.0708C35.7718 28.1336 35.8439 28.1563 35.6555 28.288C35.352 28.4999 35.0821 28.6216 34.8315 28.8955C34.8236 28.8844 34.8165 28.8664 34.8125 28.8592L34.6409 28.6005C34.6285 29.09 34.272 29.2722 33.9726 29.556C33.8292 29.6921 33.964 29.6056 33.7418 29.7148C33.4551 29.8556 32.3013 31.1243 31.7382 31.3472L31.6694 31.3692C31.661 31.3716 31.6439 31.3748 31.6353 31.377L31.1874 31.4664L30.7361 31.0281C30.5476 30.8329 30.8758 31.1178 30.6274 30.9259C30.4195 30.7654 30.2172 30.4037 30.0614 30.3197C29.6187 30.0809 29.8732 30.1878 29.5178 29.8923C29.3511 29.7536 29.1326 29.6044 29.0578 29.3947L29.0204 29.1203C28.9758 29.1601 29.1326 29.2195 28.8727 29.1533C28.7543 29.1231 28.6406 28.9027 28.3533 28.6473C28.231 28.5385 28.2996 28.6332 28.1687 28.4716C27.236 27.3209 27.321 27.6606 28.2396 26.2226C28.4058 25.9625 28.5217 25.8581 28.6722 25.6298C28.8227 25.4016 28.9085 25.4194 29.0328 25.2127C29.0401 25.2006 29.0465 25.1841 29.0531 25.1713C29.4006 24.4871 29.8754 23.7877 30.23 23.1055C30.39 22.7978 30.5673 22.7713 30.9026 22.7089Z" fill="#1B1918"/>
<path fill-rule="evenodd" clip-rule="evenodd" d="M27.3842 30.4389C27.2595 30.2422 27.1967 30.034 27.0627 29.8084C26.766 29.3084 26.3638 28.907 26.3546 28.5991C26.3703 28.6541 26.2545 28.8927 26.1992 29.0466C25.994 29.6177 26.0348 30.5574 26.008 30.7494C25.8345 31.9866 25.9499 32.6497 26.1671 33.9914C26.3626 35.1994 26.5453 36.1565 26.9011 37.3334L27.3163 39.2565C27.5219 39.2383 27.4601 39.207 27.5917 39.0167L28.1929 38.1756C28.3307 37.9389 28.4649 37.7528 28.6343 37.5821C29.4597 36.7501 29.3199 36.8738 29.3347 35.3488C29.3496 33.8281 29.3098 33.3944 28.4709 32.3126C28.0122 31.7211 27.7783 31.0599 27.3842 30.4389Z" fill="white"/>
<path fill-rule="evenodd" clip-rule="evenodd" d="M35.8017 29.8108C35.8697 29.5723 35.8147 29.4583 35.7475 29.2541C35.5502 29.3854 35.5631 29.4782 35.4511 29.6464C35.1574 30.0878 34.9848 30.2642 34.7006 30.8242C34.6149 30.9933 34.3267 31.58 34.2227 31.6765C34.0344 31.851 34.1599 31.6712 34.0125 31.8186C33.8026 32.0286 34.0129 32.1797 33.7469 32.3665C33.6621 32.2474 33.6946 32.1218 33.7406 31.9966C33.7948 31.8488 33.813 31.8475 33.8463 31.6941C33.3337 32.7449 33.5159 32.537 33.7017 33.2001C33.2505 33.1815 33.7056 33.2086 33.4264 33.0888L33.3551 33.6633C33.3142 33.6803 33.2519 33.8565 33.244 33.562C33.203 33.7882 33.2116 33.8453 33.1936 33.9632L33.0988 34.3147C32.9342 35.2852 32.7668 35.8914 33.0728 36.6947C33.6233 36.7227 33.5266 36.7867 33.5831 36.9219L33.7117 37.1901C33.8658 37.4717 33.7725 37.5062 33.8986 37.6638C34.1151 37.5591 33.9066 37.6813 34.0297 37.5682L34.7409 36.7031C35.2467 36.039 35.0698 36.3549 35.1498 35.967L35.9193 32.8212C35.9228 32.4133 35.8045 32.1951 35.6788 31.9095C35.5768 31.6777 35.4924 31.3963 35.451 31.0929C35.6399 31.1482 35.5178 31.0866 35.5779 31.268L35.8936 32.056C35.9617 31.9789 35.9262 32.098 35.9994 31.8837C36.0102 31.8522 36.0236 31.7843 36.0224 31.7365C36.015 31.4248 35.9807 31.6147 35.9352 31.4683C35.8638 31.2388 36.07 30.4022 35.8771 29.8508L35.8561 29.8117C35.8551 29.8104 35.8451 29.8058 35.8441 29.8051C35.8422 29.8038 35.8378 29.9673 35.8167 29.8065C35.8159 29.8011 35.8063 29.8132 35.8017 29.8108Z" fill="white"/>
<path fill-rule="evenodd" clip-rule="evenodd" d="M28.9145 14.0601C29.0104 14.1607 29.0638 14.1694 29.1036 14.1632C29.2281 13.9871 29.1882 14.0983 28.9178 13.6943C28.7947 13.5758 28.8895 13.5325 29.11 13.7997C29.3914 14.1408 29.6324 14.4748 29.6525 14.514C29.8426 14.884 29.7061 14.8802 30.5706 15.1215C31.2209 15.303 31.4049 15.5391 32.0195 15.2667C32.4135 15.0921 33.0413 14.7547 33.4552 14.728C33.5712 13.3109 33.6593 13.76 34.4372 12.9827C34.5908 12.8291 34.6212 12.7488 34.7358 12.62C34.8742 12.4641 35.3191 12.4121 35.2932 12.1563L35.2714 11.9418L34.9419 10.6062C34.7829 9.67431 34.5271 8.81873 34.4648 7.84109C34.4422 7.48626 34.4774 6.67342 34.1684 6.53187C34.1137 6.63339 34.865 10.6942 34.9513 11.3261C35.0627 12.143 35.0737 12.1388 34.3101 12.7352C34.0627 12.9285 33.8985 13.0858 33.6766 13.2514L33.6564 12.7503C33.4596 12.8945 33.4354 13.2964 33.4064 13.5338C33.2593 14.7386 33.4529 14.4321 32.0479 14.9895C31.3734 15.257 31.386 15.1409 30.6981 14.9193C30.1407 14.7397 29.8755 14.822 29.7026 14.1853C29.5747 13.7144 29.5216 13.1279 29.2332 12.8403C29.2512 13.0454 29.2999 13.1693 29.3545 13.3625C29.3975 13.5147 29.4903 13.7785 29.4131 13.9108C29.2839 13.7601 29.2578 13.7111 29.1511 13.5837C28.9457 13.3385 28.6983 12.8793 28.3881 12.8059C28.3793 12.8038 28.3603 12.8024 28.3518 12.801C28.1405 12.7653 28.0613 12.498 27.9408 12.3242C27.8285 12.1622 27.7286 12.0323 27.6114 11.871C27.2667 11.3965 27.4116 11.0895 27.5379 10.5484C27.5907 10.3224 27.9299 7.85958 27.7276 7.55727L27.6882 7.66634C27.6846 7.68157 27.677 7.70311 27.6733 7.72194L27.6048 8.50756C27.4222 8.29875 27.2482 7.77178 27.1112 7.43727C27.0026 7.1723 26.6815 6.5507 26.6562 6.35824L27.1039 6.43787C27.3398 5.83249 27.9894 4.57993 28.0979 4.16473C27.8602 4.38882 27.3615 5.47573 27.2213 5.82333C27.0682 6.20284 27.1457 6.25737 26.7471 6.22167L28.9152 1.61524C29.0625 1.30384 29.367 0.636742 29.4748 1.45932L29.657 3.25498C29.7369 3.94349 29.9151 4.95048 29.902 5.6106C30.2197 5.57051 30.0489 5.20003 29.9501 4.35662C29.8907 3.84878 29.8381 3.35702 29.7772 2.85052C29.7248 2.4147 29.5297 0.164515 29.3529 0C29.1661 0.188907 29.3225 0.528384 29.3671 0.797055C29.076 0.966689 29.0535 0.923407 28.8734 1.34223C28.4676 2.28581 27.6479 4.14532 27.1898 4.95716C27.0645 5.1794 26.9603 5.36896 26.831 5.62233C26.655 5.96708 26.7491 6.15967 26.3164 6.19224C26.4922 6.6026 26.6515 6.8031 26.8983 7.46059C27.0399 7.83819 27.2516 8.34994 27.4365 8.72546C27.6214 9.10071 27.5306 8.95866 27.4702 9.42732L27.2513 11.0417C27.1509 11.6777 26.9694 11.1237 27.1871 11.7045C27.0018 11.5348 26.896 11.2447 26.71 11.1616C26.7158 11.2746 27.4807 12.4178 27.6674 12.5438C27.6256 12.1918 27.5621 12.3955 27.4596 12.0952L27.6996 12.3232C27.765 12.4143 27.828 12.5216 27.8849 12.6106C28.0385 12.8508 28.1506 12.9636 28.266 13.2042C27.9328 13.3324 28.081 13.5695 27.7709 13.7042C27.5744 13.4902 27.847 13.4999 27.4636 13.3694C27.2338 13.8808 27.8236 13.7502 27.1148 14.2165C26.9348 14.3349 26.8274 14.466 26.7024 14.5781C26.789 14.6389 26.8521 14.5737 26.9259 14.6524C27.0253 14.7582 26.9422 14.6151 26.9386 14.7546L26.9353 14.886C27.1581 14.7077 27.2657 14.478 27.5975 14.2602C27.6541 14.3282 27.7542 14.5379 27.7598 14.6411C27.7705 14.8364 27.0671 16.9428 27.1469 17.3059L27.2134 17.4881C27.2456 17.6464 27.1905 17.7283 27.1862 17.952C27.4891 17.3013 27.6401 16.0456 27.9378 15.2553L27.9807 15.1556C28.3981 16.777 28.93 19.1395 29.4974 20.8028L29.9556 22.2075C30.0281 22.4868 29.9404 22.5419 30.2558 22.6C30.3959 22.3383 30.0986 22.0676 30.0867 21.7881C30.0777 21.5763 30.0489 21.6762 30.1824 21.5779C29.8703 21.4309 29.5572 20.1745 29.4345 19.8102C29.232 19.2087 27.8558 14.2035 27.9053 14.0398C27.9584 13.9748 28.4275 13.4754 28.4677 13.517L28.4953 13.5456C28.5799 13.6329 28.6852 13.8196 28.9145 14.0601Z" fill="#1B1918"/>
<path fill-rule="evenodd" clip-rule="evenodd" d="M31.8904 21.9871C31.818 22.0996 31.7069 22.4439 31.5525 22.5008L31.5378 22.2334C31.5285 22.2453 31.5221 22.2647 31.5175 22.274L31.3734 22.5546C31.3289 22.4971 31.362 22.5171 31.2389 22.5703C31.2308 22.5619 31.2245 22.545 31.2221 22.54C31.2197 22.5351 31.2092 22.5158 31.2063 22.5097L30.8456 21.7918C30.6825 22.1865 31.088 22.26 31.0207 22.7271C31.7616 22.7006 31.2008 22.7408 31.4493 23.2672C31.7308 23.1118 31.6141 23.1544 31.6672 22.7246L32.1216 22.6972L32.2277 22.8433C32.2351 22.8541 32.2443 22.8695 32.2516 22.8802C32.3074 22.9613 32.308 22.9707 32.3758 23.0503C32.5005 22.9282 32.4622 22.8961 32.5949 22.8425C32.7216 23.2193 32.7946 23.463 32.9267 23.5593C33.0303 23.6347 32.8955 23.4107 33.0292 23.6162L33.4504 24.5053C33.4988 24.617 33.5723 24.7121 33.5648 24.8079C33.5357 25.179 33.4708 24.6251 33.4776 25.0158L33.6321 25.0418C33.7498 25.0567 33.6348 25.0219 33.7337 25.0506C33.8284 25.3805 33.9598 25.5787 34.0811 25.912C34.1422 26.0799 34.7046 27.0117 34.8815 27.5295C34.9502 27.7308 35.1855 28.166 35.3713 28.2423L35.5317 28.1725C35.5152 28.0561 34.6235 26.3647 34.4854 26.1389C34.7835 25.5039 35.372 25.5576 35.4062 25.0427L35.076 25.2947L35.8413 24.1088L35.0401 24.8983C34.8069 25.1665 34.655 25.4115 34.2819 25.712C34.1725 25.4014 33.9628 25.1451 33.9591 24.7545C34.0032 24.6006 34.6951 24.1124 34.9298 23.6407C34.8488 23.7148 34.4525 24.1346 34.4048 24.1609C34.0833 24.3376 34.2983 24.0948 34.0877 24.2689C33.8236 24.4872 34.1325 24.4067 33.7875 24.4722L32.9787 22.8741C32.6641 22.3393 32.7653 22.3694 32.662 22.2265L32.6065 22.1709C32.5299 22.0886 32.4958 22.1775 32.5177 21.9436L33.7951 17.7578C33.8752 17.4488 34.1458 16.3238 34.3141 16.1438L34.3453 15.9893C34.346 15.9725 34.3338 15.8946 34.3305 15.8824C34.2481 15.5753 34.4304 16.1624 34.2962 15.8122C34.2867 15.7876 34.2755 15.7377 34.2762 15.7268C34.4149 15.6688 34.0961 15.5817 34.4896 15.7015C34.318 15.298 34.9403 14.8055 34.6745 14.3979C34.3298 14.4596 34.5647 14.3648 34.4858 14.5728C34.485 14.5751 34.4845 14.5886 34.4837 14.5903C34.4833 14.5914 34.4807 14.6007 34.4802 14.6014L34.436 14.6031C34.3278 15.2189 34.2506 15.5154 34.0354 16.1479C33.7926 16.8618 33.6399 17.6191 33.3992 18.406L32.4936 21.1031C32.4087 21.3355 32.4219 21.4791 32.3539 21.7058C32.2607 22.0168 32.2802 21.6731 32.2368 22.2823C32.2148 22.5901 32.2381 22.4798 32.0017 22.5851L32.1064 22.1661L31.8904 21.9871Z" fill="#1B1918"/>
<path fill-rule="evenodd" clip-rule="evenodd" d="M33.5218 0.786482L33.047 0.777581C32.7946 0.846133 32.9988 0.779644 32.9134 0.857212C33.1178 0.96813 33.1826 0.919845 33.4157 0.902215C33.3793 1.3541 33.4206 1.6515 33.3384 2.13574C33.2236 2.81342 32.8226 5.56783 32.724 5.75324C31.9179 5.81579 29.9798 5.81466 29.2129 5.67901C29.3145 5.90738 29.3237 5.86912 29.4771 5.85207C30.441 5.74499 30.7412 5.94398 31.4097 5.92301C31.7042 5.91378 32.7431 6.12165 32.9877 5.93034C33.0661 5.87886 32.9719 5.79704 32.9847 5.52367C32.9949 5.30399 33.0342 5.15191 33.0642 4.94579L33.6255 1.39087C33.6737 1.45919 33.6369 1.34992 33.7093 1.55544L34.5137 4.89078C34.6323 4.82209 34.6972 4.90499 34.5993 4.48241C34.5578 4.3033 34.5848 4.27806 34.5098 4.01174C34.4633 3.84608 34.4207 3.71761 34.3779 3.55182C34.2072 2.89099 34.1944 3.15887 33.959 2.03237L33.8104 1.18624C33.7832 0.813282 33.7701 1.02935 33.8677 0.928747C34.1701 1.00822 33.9802 1.03709 34.1859 1.79063C34.428 2.67727 34.746 3.97897 35.0208 4.75675C35.2056 5.27988 35.5089 6.09556 35.6296 6.67655C35.7278 7.1487 35.1129 8.00491 34.964 8.43363C35.1974 8.24572 35.8934 7.24382 35.8924 6.88047C35.8916 6.62587 35.4107 5.24951 35.2813 4.91523C35.018 4.23526 34.9221 3.60635 34.7164 2.89318L34.2996 1.38126C34.2205 1.00603 34.3007 1.07107 34.3618 0.802471L33.7265 0.802337L33.7401 0.379943C33.7124 0.218714 33.7546 0.330681 33.6872 0.226105C33.5391 0.400285 33.5404 0.565085 33.5218 0.786482Z" fill="#1B1918"/>
<path fill-rule="evenodd" clip-rule="evenodd" d="M31.8875 47.7476C32.0643 47.9079 32.3271 47.969 32.494 48.1025C32.0174 48.01 31.8793 47.82 31.3226 47.7301C31.2829 47.9113 31.2574 47.9053 31.2016 48.1023C31.1755 48.1945 31.1762 48.1358 31.1637 48.2818C31.1467 48.4807 31.0953 48.3057 31.1809 48.3926C31.4065 48.6529 32.5461 48.808 32.9364 48.8577C33.5493 48.9359 33.3305 48.7085 33.5674 48.9617C33.3371 49.0754 32.5828 48.9675 32.2485 48.8876C31.2717 48.654 31.2466 48.5396 31.1386 48.7713C31.5286 48.9122 32.1198 48.8796 32.4902 49.0678C32.0875 49.0705 31.5336 48.8966 31.3357 49.0152C31.6145 49.1376 31.4613 49.2437 31.7972 49.2301L33.7418 49.0785L33.9565 48.2905C33.6088 47.9781 33.6615 48.2929 33.7266 48.619L33.2658 48.4252C33.2736 48.4191 33.2916 48.4076 33.2991 48.4007C33.3089 48.3916 33.4316 48.3919 33.3486 48.0775C32.8707 47.9424 32.3563 47.7528 31.8875 47.7476Z" fill="white"/>
<path fill-rule="evenodd" clip-rule="evenodd" d="M33.2599 47.8146C33.2465 47.6783 33.212 47.6996 33.1683 47.6409C32.9288 47.3191 33.1627 47.3366 33.115 46.5468C33.0978 46.2636 33.2142 45.9671 32.9021 45.9036C32.1762 45.7559 32.3132 46.0849 32.3087 46.143L32.2679 46.048C32.2614 46.033 32.2383 45.9779 32.2322 45.9644C32.1042 45.6822 32.3788 46.0402 32.1806 45.8688L31.9059 46.4847C32.0199 46.6139 31.8389 46.4715 31.9987 46.4752L32.1106 46.4902C32.1162 46.4762 32.1412 46.4932 32.1532 46.5016C31.7821 46.7633 31.9293 46.8496 31.8301 47.0136L31.7855 47.0603C31.7731 47.0715 31.4199 47.2252 31.6591 47.4586L31.8121 47.5341C31.8185 47.5371 31.8336 47.5466 31.841 47.5497C32.0386 47.6338 32.4497 47.6398 32.8449 47.7976C32.8966 47.7193 32.8576 47.7781 32.8745 47.724C32.9581 47.4566 32.8255 47.8142 32.8897 47.6512C33.0195 47.7718 33.0634 47.7658 33.2599 47.8146Z" fill="white"/>
<path fill-rule="evenodd" clip-rule="evenodd" d="M30.7833 22.465C30.7963 22.4773 30.8185 22.4748 30.8229 22.5014C30.8273 22.5276 30.8514 22.5307 30.8566 22.5425C30.9049 22.6539 30.8836 22.5733 30.9018 22.7089L31.0213 22.7271C31.0886 22.26 30.6831 22.1865 30.8462 21.7918C30.7992 21.6609 30.7739 21.4855 30.7058 21.3495C30.6105 21.159 30.6286 21.2022 30.5457 20.9943L30.2101 20.0571C30.055 19.4218 29.7916 18.8366 29.5716 18.1628C29.3471 17.4749 29.1864 16.9218 29.0012 16.2144C28.8183 15.5161 28.6502 14.8568 28.3787 14.2476C28.5169 14.2166 28.5157 14.1821 28.6038 14.0398C28.5193 13.8462 28.5107 13.9509 28.4026 13.7204C28.3541 13.6168 28.3089 13.4688 28.2876 13.3934L28.3363 13.861C28.0962 13.9492 28.2717 13.7615 28.0996 13.9797C28.167 14.3583 28.3202 14.7358 28.4262 15.0969C28.8057 16.3894 29.3029 18.0345 29.7674 19.2816C29.8715 19.5608 30.0475 20.0208 30.1204 20.3053C30.2146 20.6728 30.3013 21.0253 30.43 21.3859C30.5595 21.7486 30.7419 22.0862 30.7833 22.465Z" fill="#1B1918"/>
<path fill-rule="evenodd" clip-rule="evenodd" d="M31.5391 22.2334L31.5537 22.5008C31.7081 22.4439 31.8192 22.0996 31.8916 21.987C32.0163 21.1357 33.1001 18.2276 33.4397 16.8525C33.2858 16.9115 33.3176 16.8626 33.2287 17.0717C32.7657 18.1616 32.1901 20.4155 31.7658 21.5093C31.6788 21.7333 31.5402 21.9602 31.5391 22.2334Z" fill="#1B1918"/>
<path fill-rule="evenodd" clip-rule="evenodd" d="M22.0829 16.9176C22.2137 16.9925 22.1422 16.9008 22.2387 17.1196C22.261 17.1704 22.2939 17.2843 22.3137 17.3485C22.3544 17.4795 22.4115 17.6493 22.4402 17.8014C22.4162 17.8419 22.4107 17.9148 22.3694 17.9521C22.6843 17.9891 22.562 17.9429 22.5383 18.0357L22.7192 18.6472C22.8608 18.8251 22.8352 19.0747 22.9813 19.3952C23.1107 19.6793 23.3261 19.6694 23.3727 20.035C23.4564 20.2131 23.3801 20.0895 23.5136 20.1466L23.6233 19.9264C23.626 19.9193 23.6287 19.9014 23.6339 19.8899C23.7481 19.9376 23.8867 19.9571 24.011 20.0042C23.9303 19.8442 23.9435 19.8744 23.8268 19.8174C23.4005 19.9167 23.2816 19.5027 23.1829 19.1234C23.1318 18.9269 23.1769 19.2267 23.1314 18.8939L22.9628 18.3723C22.8951 18.2905 22.9346 18.3942 22.8345 18.1875C22.7563 18.0259 22.7599 17.7703 22.6792 17.5214C22.5593 17.1516 22.5416 17.2912 22.4153 16.7242L22.043 16.7968C22.0443 16.8071 22.0743 16.8994 22.0829 16.9176Z" fill="#1B1918"/>
<path fill-rule="evenodd" clip-rule="evenodd" d="M34.3152 16.1438C34.3694 16.3261 34.5158 16.6066 34.6035 16.8341C34.8159 17.3854 35.0793 18.6473 35.3953 19.1722C35.3795 18.6552 34.7223 16.1321 34.4907 15.7015C34.0973 15.5817 34.4161 15.6688 34.2774 15.7268C34.2768 15.7377 34.2879 15.7876 34.2973 15.8122C34.4316 16.1624 34.2493 15.5753 34.3317 15.8824C34.335 15.8946 34.3473 15.9725 34.3465 15.9893L34.3152 16.1438Z" fill="#1B1918"/>
<path fill-rule="evenodd" clip-rule="evenodd" d="M31.0002 47.3629C30.7661 47.414 30.9265 47.3635 30.7828 47.4282C30.6687 47.4796 30.7141 47.4531 30.6346 47.5258C30.4982 47.6508 30.5181 47.6257 30.4805 47.8168C30.6322 47.7637 30.6555 47.7409 30.8151 47.6774C30.6971 47.8545 30.6588 47.8146 30.5319 47.9896C30.6409 48.275 30.5982 48.3275 31.0013 48.3728C31.0428 48.2311 31.0795 48.052 31.1411 47.9444C31.029 47.8232 30.9715 47.8834 30.8732 47.6886L31.0002 47.3629Z" fill="#1B1918"/>
<path fill-rule="evenodd" clip-rule="evenodd" d="M25.2761 30.1282L25.2861 30.2615C25.5291 30.4878 25.3447 30.8769 25.5103 31.1414C25.7273 31.4882 25.5904 30.8947 25.5877 30.8741L25.6108 29.7662C25.0561 29.9641 25.2371 29.9989 25.2761 30.1282Z" fill="#1B1918"/>
<path fill-rule="evenodd" clip-rule="evenodd" d="M29.578 32.8386L29.1621 32.6214C29.1857 32.8614 29.1631 32.7686 29.2717 32.9498C29.4572 33.2592 29.2627 33.1133 29.584 33.1682L29.578 32.8386Z" fill="#1B1918"/>
<path fill-rule="evenodd" clip-rule="evenodd" d="M22.4188 27.5247C22.4782 27.6272 22.423 27.5596 22.5251 27.6365C22.6478 27.547 22.6461 27.7761 22.6482 27.4503C22.6491 27.2924 22.6436 27.3513 22.5381 27.2818C22.4253 27.2076 22.2854 27.2276 22.1777 27.2614C22.2897 27.3831 22.3046 27.3678 22.4188 27.5247Z" fill="#1B1918"/>
<path fill-rule="evenodd" clip-rule="evenodd" d="M27.6295 28.0293L27.2456 27.4742C27.1861 27.5569 27.0643 27.3221 27.1611 27.7008C27.1842 27.7913 27.5686 28.0046 27.6295 28.0293Z" fill="#1B1918"/>
<path fill-rule="evenodd" clip-rule="evenodd" d="M30.7875 50.7627C30.8575 50.6953 30.8209 50.6703 30.7528 50.5683C30.6429 50.4038 30.7018 50.4744 30.541 50.382C30.5498 50.5171 30.5838 50.9591 30.7875 50.7627Z" fill="#1B1918"/>
<path fill-rule="evenodd" clip-rule="evenodd" d="M27.4283 39.5803C27.3774 39.4715 27.2987 39.4976 27.2074 39.4628C27.2182 39.6166 27.0892 39.3713 27.2171 39.6628C27.3053 39.8638 27.2092 39.7125 27.3671 39.778C27.3971 39.7348 27.5666 39.8756 27.4283 39.5803Z" fill="#1B1918"/>
<path fill-rule="evenodd" clip-rule="evenodd" d="M29.4766 9.23981C29.5158 9.2398 29.5547 9.24753 29.591 9.26255C29.6272 9.27757 29.6602 9.29958 29.6879 9.32734C29.7157 9.35509 29.7377 9.38804 29.7527 9.4243C29.7677 9.46057 29.7755 9.49943 29.7755 9.53868C29.7755 9.59779 29.7579 9.65557 29.7251 9.70472C29.6923 9.75387 29.6456 9.79217 29.591 9.81479C29.5364 9.83742 29.4763 9.84334 29.4183 9.83181C29.3603 9.82028 29.3071 9.79181 29.2653 9.75002C29.2235 9.70822 29.195 9.65497 29.1835 9.597C29.1719 9.53902 29.1779 9.47893 29.2005 9.42432C29.2231 9.36971 29.2614 9.32303 29.3105 9.29019C29.3597 9.25735 29.4175 9.23981 29.4766 9.23981Z" fill="#E30016"/>
<path fill-rule="evenodd" clip-rule="evenodd" d="M28.6579 9.43701C28.6718 9.43701 28.6851 9.44254 28.695 9.45237C28.7048 9.4622 28.7103 9.47554 28.7103 9.48944C28.7103 9.49981 28.7073 9.50995 28.7015 9.51857C28.6957 9.52719 28.6875 9.53392 28.678 9.53788C28.6684 9.54185 28.6578 9.54289 28.6477 9.54087C28.6375 9.53885 28.6282 9.53385 28.6208 9.52652C28.6135 9.51918 28.6085 9.50985 28.6065 9.49967C28.6045 9.4895 28.6055 9.47896 28.6095 9.46938C28.6134 9.4598 28.6201 9.45161 28.6288 9.44585C28.6374 9.44009 28.6475 9.43701 28.6579 9.43701Z" fill="#E30016"/>
<path fill-rule="evenodd" clip-rule="evenodd" d="M32.9981 9.0491C33.0373 9.0491 33.0762 9.05683 33.1125 9.07185C33.1487 9.08687 33.1817 9.10889 33.2094 9.13664C33.2372 9.1644 33.2592 9.19735 33.2742 9.23361C33.2892 9.26987 33.297 9.30874 33.297 9.34799C33.297 9.4071 33.2794 9.46488 33.2466 9.51403C33.2137 9.56318 33.1671 9.60148 33.1124 9.6241C33.0578 9.64671 32.9977 9.65263 32.9398 9.64109C32.8818 9.62956 32.8285 9.6011 32.7867 9.5593C32.745 9.5175 32.7165 9.46424 32.705 9.40627C32.6934 9.34829 32.6994 9.2882 32.722 9.23359C32.7446 9.17898 32.7829 9.13231 32.832 9.09947C32.8812 9.06663 32.939 9.0491 32.9981 9.0491Z" fill="#E30016"/>
<path fill-rule="evenodd" clip-rule="evenodd" d="M28.7048 9.08759C28.7187 9.08759 28.732 9.09311 28.7419 9.10294C28.7517 9.11277 28.7572 9.12611 28.7572 9.14001C28.7572 9.15038 28.7541 9.16052 28.7484 9.16915C28.7426 9.17777 28.7344 9.18449 28.7248 9.18846C28.7153 9.19243 28.7047 9.19346 28.6945 9.19144C28.6844 9.18941 28.675 9.18442 28.6677 9.17709C28.6604 9.16976 28.6554 9.16041 28.6534 9.15024C28.6513 9.14007 28.6524 9.12953 28.6563 9.11995C28.6603 9.11037 28.667 9.10218 28.6756 9.09642C28.6843 9.09066 28.6944 9.08759 28.7048 9.08759Z" fill="#E30016"/>
<path fill-rule="evenodd" clip-rule="evenodd" d="M28.7438 9.7937C28.7577 9.7937 28.7711 9.79922 28.7809 9.80906C28.7907 9.81889 28.7963 9.83223 28.7963 9.84613C28.7963 9.8565 28.7932 9.86664 28.7874 9.87526C28.7817 9.88388 28.7735 9.89061 28.7639 9.89457C28.7543 9.89854 28.7438 9.89958 28.7336 9.89756C28.7234 9.89554 28.7141 9.89054 28.7068 9.88321C28.6994 9.87587 28.6944 9.86653 28.6924 9.85636C28.6904 9.84619 28.6914 9.83565 28.6954 9.82607C28.6994 9.81649 28.7061 9.8083 28.7147 9.80254C28.7233 9.79678 28.7335 9.7937 28.7438 9.7937Z" fill="#E30016"/>
<path fill-rule="evenodd" clip-rule="evenodd" d="M33.8903 9.3963C33.9042 9.3963 33.9176 9.40183 33.9274 9.41166C33.9372 9.42149 33.9428 9.43483 33.9428 9.44873C33.9428 9.4591 33.9397 9.46925 33.9339 9.47787C33.9282 9.48649 33.92 9.49321 33.9104 9.49717C33.9008 9.50114 33.8903 9.50218 33.8801 9.50016C33.8699 9.49814 33.8606 9.49315 33.8532 9.48581C33.8459 9.47848 33.8409 9.46913 33.8389 9.45896C33.8369 9.44879 33.8379 9.43825 33.8419 9.42867C33.8458 9.41909 33.8526 9.4109 33.8612 9.40514C33.8698 9.39938 33.88 9.3963 33.8903 9.3963Z" fill="#E30016"/>
<path fill-rule="evenodd" clip-rule="evenodd" d="M33.9079 9.0676C33.9148 9.0676 33.9216 9.06895 33.928 9.07159C33.9343 9.07423 33.9401 9.07809 33.945 9.08296C33.9499 9.08783 33.9537 9.09361 33.9563 9.09998C33.959 9.10634 33.9603 9.11316 33.9603 9.12005C33.9603 9.13042 33.9573 9.14055 33.9515 9.14917C33.9457 9.15779 33.9375 9.16451 33.928 9.16847C33.9184 9.17244 33.9078 9.17347 33.8977 9.17145C33.8875 9.16942 33.8782 9.16443 33.8708 9.1571C33.8635 9.14976 33.8585 9.14042 33.8565 9.13025C33.8545 9.12008 33.8555 9.10954 33.8595 9.09996C33.8634 9.09038 33.8702 9.08219 33.8788 9.07643C33.8874 9.07067 33.8975 9.0676 33.9079 9.0676Z" fill="#E30016"/>
<path fill-rule="evenodd" clip-rule="evenodd" d="M60 40.0726H60.8068C61.1319 40.0726 61.3819 40.1107 61.5558 40.1876C61.7306 40.2646 61.8684 40.3834 61.9691 40.543C62.0708 40.7017 62.1212 40.8795 62.1212 41.0733C62.1212 41.2558 62.0766 41.4212 61.9881 41.5703C61.8998 41.7196 61.7696 41.8403 61.5985 41.9334C61.8114 42.0057 61.9749 42.0902 62.0889 42.1881C62.2038 42.285 62.2923 42.4029 62.356 42.5417C62.4197 42.6794 62.4519 42.8296 62.4519 42.9911C62.4519 43.32 62.3322 43.5984 62.0917 43.8256C61.8513 44.0527 61.5291 44.1667 61.1243 44.1667H60V40.0726ZM60.3992 40.4717V41.7833H60.6339C60.919 41.7833 61.129 41.7566 61.263 41.7044C61.3971 41.6511 61.5034 41.5675 61.5814 41.4534C61.6603 41.3394 61.6993 41.212 61.6993 41.0733C61.6993 40.8861 61.6337 40.7388 61.5025 40.6314C61.3704 40.525 61.1614 40.4717 60.8743 40.4717H60.3992ZM60.3992 42.1938V43.7676H60.9076C61.2069 43.7676 61.4265 43.7381 61.5662 43.6802C61.706 43.6213 61.8181 43.529 61.9027 43.4045C61.9872 43.2801 62.03 43.1451 62.03 43.0007C62.03 42.8182 61.9701 42.6585 61.8513 42.5226C61.7325 42.3876 61.569 42.2945 61.361 42.2442C61.2212 42.2109 60.9779 42.1938 60.631 42.1938H60.3992ZM66.2163 41.1389V44.1667H65.8286V43.6459C65.6651 43.8445 65.4826 43.9938 65.2792 44.0926C65.0768 44.1914 64.8545 44.2409 64.614 44.2409C64.1863 44.2409 63.8204 44.0859 63.5173 43.7761C63.2142 43.4653 63.063 43.089 63.063 42.6442C63.063 42.2099 63.2161 41.8374 63.522 41.5286C63.8271 41.2197 64.1949 41.0648 64.6254 41.0648C64.8735 41.0648 65.0977 41.117 65.2993 41.2216C65.4997 41.3261 65.6765 41.4838 65.8286 41.6958V41.1389H66.2163ZM64.6559 41.4411C64.4391 41.4411 64.2386 41.4943 64.0562 41.6008C63.8728 41.7063 63.7273 41.8555 63.619 42.0475C63.5107 42.2394 63.4565 42.4428 63.4565 42.6576C63.4565 42.8695 63.5107 43.0729 63.62 43.2667C63.7292 43.4606 63.8756 43.6117 64.06 43.7191C64.2443 43.8274 64.442 43.8816 64.653 43.8816C64.8649 43.8816 65.0673 43.8284 65.2575 43.7211C65.4484 43.6136 65.5948 43.4691 65.6974 43.2857C65.8 43.1033 65.8514 42.8971 65.8514 42.668C65.8514 42.3193 65.7364 42.0274 65.5054 41.7927C65.2755 41.558 64.9923 41.4411 64.6559 41.4411ZM71.6229 44.1667H67.0953V41.1389H67.4831V43.8018H69.1595V41.1389H69.5587V43.8018H71.2238V41.1389H71.6229V44.1667ZM75.5051 41.1389V44.1667H75.1174V43.6459C74.9539 43.8445 74.7714 43.9938 74.568 44.0926C74.3656 44.1914 74.1433 44.2409 73.9028 44.2409C73.4751 44.2409 73.1092 44.0859 72.806 43.7761C72.5029 43.4653 72.3518 43.089 72.3518 42.6442C72.3518 42.2099 72.5048 41.8374 72.8108 41.5286C73.1159 41.2197 73.4837 41.0648 73.9142 41.0648C74.1622 41.0648 74.3865 41.117 74.588 41.2216C74.7885 41.3261 74.9653 41.4838 75.1174 41.6958V41.1389H75.5051ZM73.9446 41.4411C73.7279 41.4411 73.5274 41.4943 73.3449 41.6008C73.1615 41.7063 73.0161 41.8555 72.9077 42.0475C72.7995 42.2394 72.7452 42.4428 72.7452 42.6576C72.7452 42.8695 72.7995 43.0729 72.9087 43.2667C73.018 43.4606 73.1644 43.6117 73.3487 43.7191C73.5331 43.8274 73.7308 43.8816 73.9417 43.8816C74.1537 43.8816 74.3561 43.8284 74.5462 43.7211C74.7372 43.6136 74.8835 43.4691 74.9862 43.2857C75.0888 43.1033 75.1401 42.8971 75.1401 42.668C75.1401 42.3193 75.0251 42.0274 74.7942 41.7927C74.5642 41.558 74.281 41.4411 73.9446 41.4411ZM80.8651 39.9015V40.2721C80.6788 40.3045 80.3604 40.3272 79.9081 40.3406C79.5811 40.352 79.3283 40.3738 79.1506 40.4061C78.9729 40.4394 78.8179 40.5012 78.6859 40.5934C78.5547 40.6866 78.4435 40.8262 78.3533 41.0134C78.263 41.2007 78.2069 41.4107 78.1841 41.6417L78.1451 42.0702C78.2516 41.7224 78.4255 41.4686 78.6688 41.3071C78.9111 41.1456 79.181 41.0648 79.4765 41.0648C79.9271 41.0648 80.3034 41.2225 80.6056 41.5371C80.9078 41.8516 81.0589 42.2261 81.0589 42.6614C81.0589 43.0928 80.9078 43.4635 80.6066 43.7742C80.3053 44.085 79.928 44.2409 79.4756 44.2409C79.0119 44.2409 78.6193 44.0679 78.2972 43.7229C77.975 43.378 77.8144 42.8343 77.8144 42.0921C77.8144 41.5751 77.8734 41.1826 77.9912 40.9165C78.11 40.6505 78.2449 40.4594 78.3979 40.3425C78.55 40.2256 78.7477 40.1334 78.9891 40.0669C79.2314 39.9994 79.6847 39.9585 80.349 39.9415C80.5533 39.9357 80.7254 39.9224 80.8651 39.9015ZM80.6598 42.6699C80.6598 42.3354 80.5429 42.0475 80.3082 41.807C80.0744 41.5665 79.7968 41.4468 79.4756 41.4468C79.1554 41.4468 78.8788 41.5675 78.645 41.8089C78.4103 42.0503 78.2934 42.3373 78.2934 42.6718C78.2934 43.0035 78.4065 43.2867 78.6317 43.5205C78.8579 43.7533 79.1392 43.8702 79.4756 43.8702C79.813 43.8702 80.0953 43.7533 80.3214 43.5196C80.5467 43.2857 80.6598 43.0026 80.6598 42.6699ZM84.3338 43.1632L84.6627 43.3361C84.5543 43.5461 84.4298 43.7163 84.2882 43.8455C84.1466 43.9738 83.9879 44.0726 83.8111 44.1401C83.6334 44.2076 83.4338 44.2409 83.2104 44.2409C82.7144 44.2409 82.3276 44.0793 82.0482 43.7562C81.7688 43.433 81.6291 43.0681 81.6291 42.6614C81.6291 42.2784 81.7479 41.9362 81.9845 41.6369C82.2839 41.2558 82.6859 41.0648 83.1886 41.0648C83.7065 41.0648 84.121 41.2606 84.4298 41.6511C84.6493 41.9268 84.7615 42.2707 84.7653 42.6842H82.0283C82.0358 43.0349 82.149 43.3219 82.3666 43.5452C82.5852 43.7695 82.855 43.8816 83.1753 43.8816C83.3302 43.8816 83.4814 43.855 83.6277 43.8018C83.774 43.7485 83.8986 43.6783 84.0012 43.5898C84.1038 43.5015 84.215 43.3599 84.3338 43.1632ZM84.3376 42.3477C84.2853 42.1396 84.2093 41.9742 84.1095 41.8497C84.0087 41.7253 83.8767 41.6255 83.7123 41.5495C83.5478 41.4734 83.3749 41.4354 83.1943 41.4354C82.895 41.4354 82.6384 41.5304 82.4236 41.7215C82.2658 41.8612 82.1479 42.0693 82.0671 42.3477H84.3376ZM85.9903 42.4048H86.1956C86.3267 42.4048 86.4464 42.362 86.5558 42.2774C86.665 42.1919 86.7201 42.0702 86.7201 41.9115C86.7201 41.7766 86.6765 41.6607 86.588 41.5637C86.4996 41.4668 86.3647 41.4183 86.1822 41.4183C85.9703 41.4183 85.7565 41.5 85.5426 41.6635L85.3231 41.3955C85.5978 41.1674 85.8895 41.0533 86.1983 41.0533C86.4531 41.0533 86.666 41.1284 86.8379 41.2776C87.01 41.4268 87.0964 41.6198 87.0964 41.8564C87.0964 42.17 86.9567 42.3829 86.6765 42.496C87.0404 42.6481 87.2219 42.9151 87.2219 43.2962C87.2219 43.5376 87.1364 43.7552 86.9663 43.95C86.7952 44.1439 86.5405 44.2409 86.2012 44.2409C85.7859 44.2409 85.4514 44.1059 85.1976 43.837L85.44 43.5642C85.6291 43.7761 85.8715 43.8816 86.168 43.8816C86.3666 43.8816 86.5224 43.8284 86.6355 43.7219C86.7486 43.6165 86.8057 43.4768 86.8057 43.3029C86.8057 43.1337 86.7486 42.9978 86.6346 42.8952C86.5205 42.7925 86.3865 42.7412 86.2317 42.7412H85.9903V42.4048ZM89.3298 41.0648C89.7964 41.0648 90.1842 41.233 90.4911 41.5703C90.7705 41.8773 90.9102 42.2413 90.9102 42.6614C90.9102 43.0833 90.7629 43.4521 90.4674 43.7676C90.1727 44.083 89.7926 44.2409 89.3298 44.2409C88.8641 44.2409 88.483 44.083 88.1884 43.7676C87.8929 43.4521 87.7455 43.0833 87.7455 42.6614C87.7455 42.2432 87.8852 41.8802 88.1646 41.5732C88.4715 41.2339 88.8603 41.0648 89.3298 41.0648ZM89.3277 41.4468C89.0036 41.4468 88.7261 41.5656 88.4932 41.8041C88.2604 42.0426 88.1445 42.3316 88.1445 42.6699C88.1445 42.8875 88.1977 43.0909 88.3032 43.2801C88.4096 43.4682 88.5531 43.6136 88.7337 43.7163C88.9133 43.8189 89.1119 43.8702 89.3277 43.8702C89.5434 43.8702 89.742 43.8189 89.9217 43.7163C90.1022 43.6136 90.2457 43.4682 90.3521 43.2801C90.4576 43.0909 90.5109 42.8875 90.5109 42.6699C90.5109 42.3316 90.3939 42.0426 90.1602 41.8041C89.9274 41.5656 89.6498 41.4468 89.3277 41.4468ZM91.6275 41.1389H94.1707V44.1667H93.783V41.5038H92.0153V44.1667H91.6275V41.1389ZM98.0548 41.1389V44.1667H97.6671V43.6459C97.5036 43.8445 97.3211 43.9938 97.1177 44.0926C96.9154 44.1914 96.693 44.2409 96.4525 44.2409C96.0248 44.2409 95.6589 44.0859 95.3558 43.7761C95.0527 43.4653 94.9015 43.089 94.9015 42.6442C94.9015 42.2099 95.0546 41.8374 95.3605 41.5286C95.6656 41.2197 96.0334 41.0648 96.4639 41.0648C96.712 41.0648 96.9362 41.117 97.1378 41.2216C97.3382 41.3261 97.515 41.4838 97.6671 41.6958V41.1389H98.0548ZM96.4944 41.4411C96.2776 41.4411 96.0771 41.4943 95.8947 41.6008C95.7113 41.7063 95.5658 41.8555 95.4575 42.0475C95.3492 42.2394 95.295 42.4428 95.295 42.6576C95.295 42.8695 95.3492 43.0729 95.4585 43.2667C95.5677 43.4606 95.7141 43.6117 95.8985 43.7191C96.0828 43.8274 96.2805 43.8816 96.4915 43.8816C96.7034 43.8816 96.9058 43.8284 97.096 43.7211C97.2869 43.6136 97.4333 43.4691 97.5359 43.2857C97.6385 43.1033 97.6899 42.8971 97.6899 42.668C97.6899 42.3193 97.5749 42.0274 97.3439 41.7927C97.114 41.558 96.8308 41.4411 96.4944 41.4411ZM101.876 41.768L101.567 41.96C101.299 41.6065 100.933 41.4298 100.47 41.4298C100.099 41.4298 99.791 41.5485 99.5459 41.7852C99.3017 42.0218 99.1791 42.3088 99.1791 42.6471C99.1791 42.8676 99.2352 43.0748 99.3483 43.2686C99.4604 43.4626 99.6153 43.6136 99.812 43.7211C100.008 43.8284 100.228 43.8816 100.473 43.8816C100.919 43.8816 101.284 43.7049 101.567 43.3513L101.876 43.5547C101.731 43.7723 101.536 43.9406 101.292 44.0613C101.047 44.181 100.768 44.2409 100.455 44.2409C99.9745 44.2409 99.5763 44.0888 99.2598 43.7856C98.9434 43.4815 98.7856 43.1128 98.7856 42.6775C98.7856 42.3858 98.8597 42.1139 99.008 41.8631C99.1553 41.6122 99.3587 41.4164 99.6172 41.2757C99.8766 41.1351 100.166 41.0648 100.486 41.0648C100.687 41.0648 100.881 41.0952 101.068 41.156C101.255 41.2168 101.413 41.2966 101.544 41.3945C101.675 41.4924 101.785 41.6169 101.876 41.768ZM102.287 41.1389H104.277V41.4753H103.473V44.1667H103.085V41.4753H102.287V41.1389ZM106.962 42.7069H105.194V44.1667H104.806V41.1389H105.194V42.342H106.962V41.1389H107.349V44.1667H106.962V42.7069ZM109.653 41.0648C110.12 41.0648 110.507 41.233 110.814 41.5703C111.094 41.8773 111.233 42.2413 111.233 42.6614C111.233 43.0833 111.086 43.4521 110.791 43.7676C110.496 44.083 110.116 44.2409 109.653 44.2409C109.187 44.2409 108.806 44.083 108.512 43.7676C108.216 43.4521 108.069 43.0833 108.069 42.6614C108.069 42.2432 108.208 41.8802 108.488 41.5732C108.795 41.2339 109.184 41.0648 109.653 41.0648ZM109.651 41.4468C109.327 41.4468 109.049 41.5656 108.816 41.8041C108.584 42.0426 108.468 42.3316 108.468 42.6699C108.468 42.8875 108.521 43.0909 108.626 43.2801C108.733 43.4682 108.876 43.6136 109.057 43.7163C109.237 43.8189 109.435 43.8702 109.651 43.8702C109.867 43.8702 110.065 43.8189 110.245 43.7163C110.425 43.6136 110.569 43.4682 110.675 43.2801C110.781 43.0909 110.834 42.8875 110.834 42.6699C110.834 42.3316 110.717 42.0426 110.483 41.8041C110.251 41.5656 109.973 41.4468 109.651 41.4468ZM114.893 41.768L114.584 41.96C114.316 41.6065 113.95 41.4298 113.487 41.4298C113.116 41.4298 112.808 41.5485 112.563 41.7852C112.319 42.0218 112.196 42.3088 112.196 42.6471C112.196 42.8676 112.252 43.0748 112.365 43.2686C112.477 43.4626 112.632 43.6136 112.829 43.7211C113.025 43.8284 113.245 43.8816 113.489 43.8816C113.936 43.8816 114.301 43.7049 114.584 43.3513L114.893 43.5547C114.748 43.7723 114.553 43.9406 114.309 44.0613C114.063 44.181 113.785 44.2409 113.472 44.2409C112.991 44.2409 112.593 44.0888 112.277 43.7856C111.96 43.4815 111.803 43.1128 111.803 42.6775C111.803 42.3858 111.877 42.1139 112.025 41.8631C112.172 41.6122 112.376 41.4164 112.634 41.2757C112.894 41.1351 113.182 41.0648 113.503 41.0648C113.704 41.0648 113.898 41.0952 114.085 41.156C114.272 41.2168 114.43 41.2966 114.561 41.3945C114.692 41.4924 114.802 41.6169 114.893 41.768ZM115.304 41.1389H117.294V41.4753H116.49V44.1667H116.102V41.4753H115.304V41.1389ZM118.208 42.3363H118.58C118.875 42.3363 119.106 42.3592 119.273 42.4057C119.441 42.4523 119.585 42.5549 119.706 42.7136C119.826 42.8723 119.887 43.0548 119.887 43.2611C119.887 43.51 119.8 43.7229 119.625 43.9007C119.451 44.0784 119.186 44.1667 118.831 44.1667H117.823V41.1389H118.208V42.3363ZM118.222 42.6956V43.836H118.672C119.201 43.836 119.465 43.6507 119.465 43.281C119.465 43.1755 119.437 43.0719 119.38 42.9702C119.324 42.8685 119.24 42.7973 119.132 42.7564C119.022 42.7155 118.83 42.6956 118.555 42.6956H118.222ZM124.244 42.7069H122.476V44.1667H122.088V41.1389H122.476V42.342H124.244V41.1389H124.631V44.1667H124.244V42.7069ZM128.516 41.1389V44.1667H128.128V43.6459C127.964 43.8445 127.782 43.9938 127.578 44.0926C127.376 44.1914 127.154 44.2409 126.913 44.2409C126.485 44.2409 126.12 44.0859 125.816 43.7761C125.513 43.4653 125.362 43.089 125.362 42.6442C125.362 42.2099 125.515 41.8374 125.821 41.5286C126.126 41.2197 126.494 41.0648 126.925 41.0648C127.173 41.0648 127.397 41.117 127.598 41.2216C127.799 41.3261 127.976 41.4838 128.128 41.6958V41.1389H128.516ZM126.955 41.4411C126.738 41.4411 126.538 41.4943 126.355 41.6008C126.172 41.7063 126.026 41.8555 125.918 42.0475C125.81 42.2394 125.756 42.4428 125.756 42.6576C125.756 42.8695 125.81 43.0729 125.919 43.2667C126.028 43.4606 126.175 43.6117 126.359 43.7191C126.544 43.8274 126.741 43.8816 126.952 43.8816C127.164 43.8816 127.366 43.8284 127.557 43.7211C127.748 43.6136 127.894 43.4691 127.997 43.2857C128.099 43.1033 128.151 42.8971 128.151 42.668C128.151 42.3193 128.036 42.0274 127.805 41.7927C127.575 41.558 127.291 41.4411 126.955 41.4411ZM133.922 44.1667H129.395V41.1389H129.783V43.8018H131.459V41.1389H131.858V43.8018H133.523V41.1389H133.922L133.922 44.1667ZM137.804 41.1389V44.1667H137.417V43.6459C137.253 43.8445 137.071 43.9938 136.867 44.0926C136.665 44.1914 136.442 44.2409 136.202 44.2409C135.774 44.2409 135.408 44.0859 135.105 43.7761C134.802 43.4653 134.651 43.089 134.651 42.6442C134.651 42.2099 134.804 41.8374 135.11 41.5286C135.415 41.2197 135.783 41.0648 136.213 41.0648C136.461 41.0648 136.686 41.117 136.887 41.2216C137.088 41.3261 137.264 41.4838 137.417 41.6958V41.1389H137.804ZM136.244 41.4411C136.027 41.4411 135.827 41.4943 135.644 41.6008C135.461 41.7063 135.315 41.8555 135.207 42.0475C135.099 42.2394 135.044 42.4428 135.044 42.6576C135.044 42.8695 135.099 43.0729 135.208 43.2667C135.317 43.4606 135.464 43.6117 135.648 43.7191C135.832 43.8274 136.03 43.8816 136.241 43.8816C136.453 43.8816 136.655 43.8284 136.845 43.7211C137.036 43.6136 137.183 43.4691 137.285 43.2857C137.388 43.1033 137.439 42.8971 137.439 42.668C137.439 42.3193 137.324 42.0274 137.093 41.7927C136.863 41.558 136.58 41.4411 136.244 41.4411ZM140.769 42.4048H140.975C141.106 42.4048 141.225 42.362 141.335 42.2774C141.444 42.1919 141.499 42.0702 141.499 41.9115C141.499 41.7766 141.456 41.6607 141.367 41.5637C141.279 41.4668 141.144 41.4183 140.961 41.4183C140.749 41.4183 140.536 41.5 140.322 41.6635L140.102 41.3955C140.377 41.1674 140.669 41.0533 140.977 41.0533C141.232 41.0533 141.445 41.1284 141.617 41.2776C141.789 41.4268 141.875 41.6198 141.875 41.8564C141.875 42.17 141.736 42.3829 141.456 42.496C141.819 42.6481 142.001 42.9151 142.001 43.2962C142.001 43.5376 141.915 43.7552 141.745 43.95C141.574 44.1439 141.32 44.2409 140.98 44.2409C140.565 44.2409 140.23 44.1059 139.977 43.837L140.219 43.5642C140.408 43.7761 140.651 43.8816 140.947 43.8816C141.146 43.8816 141.301 43.8284 141.415 43.7219C141.528 43.6165 141.585 43.4768 141.585 43.3029C141.585 43.1337 141.528 42.9978 141.414 42.8952C141.3 42.7925 141.166 42.7412 141.011 42.7412H140.769V42.4048ZM145.689 41.1389V44.1667H145.302V43.6459C145.138 43.8445 144.956 43.9938 144.752 44.0926C144.55 44.1914 144.327 44.2409 144.087 44.2409C143.659 44.2409 143.293 44.0859 142.99 43.7761C142.687 43.4653 142.536 43.089 142.536 42.6442C142.536 42.2099 142.689 41.8374 142.995 41.5286C143.3 41.2197 143.668 41.0648 144.098 41.0648C144.346 41.0648 144.571 41.117 144.772 41.2216C144.973 41.3261 145.149 41.4838 145.302 41.6958V41.1389H145.689ZM144.129 41.4411C143.912 41.4411 143.712 41.4943 143.529 41.6008C143.346 41.7063 143.2 41.8555 143.092 42.0475C142.984 42.2394 142.929 42.4428 142.929 42.6576C142.929 42.8695 142.984 43.0729 143.093 43.2667C143.202 43.4606 143.349 43.6117 143.533 43.7191C143.717 43.8274 143.915 43.8816 144.126 43.8816C144.338 43.8816 144.54 43.8284 144.73 43.7211C144.921 43.6136 145.068 43.4691 145.17 43.2857C145.273 43.1033 145.324 42.8971 145.324 42.668C145.324 42.3193 145.209 42.0274 144.978 41.7927C144.748 41.558 144.465 41.4411 144.129 41.4411ZM149.471 39.9015V40.2721C149.285 40.3045 148.966 40.3272 148.514 40.3406C148.187 40.352 147.934 40.3738 147.756 40.4061C147.579 40.4394 147.424 40.5012 147.292 40.5934C147.16 40.6866 147.049 40.8262 146.959 41.0134C146.869 41.2007 146.813 41.4107 146.79 41.6417L146.751 42.0702C146.857 41.7224 147.031 41.4686 147.274 41.3071C147.517 41.1456 147.787 41.0648 148.082 41.0648C148.533 41.0648 148.909 41.2225 149.211 41.5371C149.513 41.8516 149.665 42.2261 149.665 42.6614C149.665 43.0928 149.513 43.4635 149.212 43.7742C148.911 44.085 148.534 44.2409 148.081 44.2409C147.618 44.2409 147.225 44.0679 146.903 43.7229C146.581 43.378 146.42 42.8343 146.42 42.0921C146.42 41.5751 146.479 41.1826 146.597 40.9165C146.716 40.6505 146.851 40.4594 147.004 40.3425C147.156 40.2256 147.353 40.1334 147.595 40.0669C147.837 39.9994 148.29 39.9585 148.955 39.9415C149.159 39.9357 149.331 39.9224 149.471 39.9015ZM149.266 42.6699C149.266 42.3354 149.149 42.0475 148.914 41.807C148.68 41.5665 148.403 41.4468 148.081 41.4468C147.761 41.4468 147.485 41.5675 147.251 41.8089C147.016 42.0503 146.899 42.3373 146.899 42.6718C146.899 43.0035 147.012 43.2867 147.237 43.5205C147.464 43.7533 147.745 43.8702 148.081 43.8702C148.419 43.8702 148.701 43.7533 148.927 43.5196C149.152 43.2857 149.266 43.0026 149.266 42.6699ZM151.819 41.0648C152.286 41.0648 152.673 41.233 152.98 41.5703C153.26 41.8773 153.399 42.2413 153.399 42.6614C153.399 43.0833 153.252 43.4521 152.957 43.7676C152.662 44.083 152.282 44.2409 151.819 44.2409C151.353 44.2409 150.972 44.083 150.678 43.7676C150.382 43.4521 150.235 43.0833 150.235 42.6614C150.235 42.2432 150.374 41.8802 150.654 41.5732C150.961 41.2339 151.35 41.0648 151.819 41.0648ZM151.817 41.4468C151.493 41.4468 151.215 41.5656 150.982 41.8041C150.75 42.0426 150.634 42.3316 150.634 42.6699C150.634 42.8875 150.687 43.0909 150.792 43.2801C150.899 43.4682 151.042 43.6136 151.223 43.7163C151.403 43.8189 151.601 43.8702 151.817 43.8702C152.033 43.8702 152.231 43.8189 152.411 43.7163C152.591 43.6136 152.735 43.4682 152.841 43.2801C152.947 43.0909 153 42.8875 153 42.6699C153 42.3316 152.883 42.0426 152.649 41.8041C152.417 41.5656 152.139 41.4468 151.817 41.4468ZM153.78 41.1389H155.77V41.4753H154.966V44.1667H154.579V41.4753H153.78V41.1389ZM159.316 41.1389V44.1667H158.928V43.6459C158.765 43.8445 158.583 43.9938 158.379 44.0926C158.177 44.1914 157.954 44.2409 157.714 44.2409C157.286 44.2409 156.92 44.0859 156.617 43.7761C156.314 43.4653 156.163 43.089 156.163 42.6442C156.163 42.2099 156.316 41.8374 156.622 41.5286C156.927 41.2197 157.295 41.0648 157.725 41.0648C157.973 41.0648 158.198 41.117 158.399 41.2216C158.6 41.3261 158.776 41.4838 158.928 41.6958V41.1389H159.316ZM157.756 41.4411C157.539 41.4411 157.339 41.4943 157.156 41.6008C156.973 41.7063 156.827 41.8555 156.719 42.0475C156.611 42.2394 156.556 42.4428 156.556 42.6576C156.556 42.8695 156.611 43.0729 156.72 43.2667C156.829 43.4606 156.976 43.6117 157.16 43.7191C157.344 43.8274 157.542 43.8816 157.753 43.8816C157.965 43.8816 158.167 43.8284 158.357 43.7211C158.548 43.6136 158.695 43.4691 158.797 43.2857C158.9 43.1033 158.951 42.8971 158.951 42.668C158.951 42.3193 158.836 42.0274 158.605 41.7927C158.375 41.558 158.092 41.4411 157.756 41.4411Z" fill="#2D2D2D"/>
<path fill-rule="evenodd" clip-rule="evenodd" d="M60 32.0185V30.2421C60 30.1145 60.0426 30.0098 60.1243 29.9215C60.2061 29.8365 60.3174 29.7938 60.4514 29.7938H61.5703C61.6881 29.7938 61.7895 29.8365 61.8845 29.9182C61.976 30 62.0218 30.108 62.0218 30.2421V31.6063C62.0218 32.0055 62.1265 32.3163 62.3326 32.5322C62.542 32.7481 62.8364 32.8561 63.2225 32.8561H63.8833C64.2465 32.8561 64.5278 32.7415 64.7274 32.5158C64.9269 32.29 65.0251 31.9825 65.0251 31.5997V30.8342C65.0251 30.4809 64.9597 30.18 64.8289 29.9313C64.6979 29.6826 64.5638 29.5027 64.4264 29.3947C64.289 29.2868 64.0829 29.1527 63.8081 28.9924L61.3708 27.5529C60.5202 27.0556 60.0949 26.254 60.0949 25.1483V23.7513C60.0949 22.8876 60.3795 22.2137 60.9488 21.7295C61.518 21.2421 62.2443 21 63.1243 21H64.0829C64.9858 21 65.7154 21.2421 66.2715 21.7295C66.8277 22.2137 67.1058 22.9008 67.1058 23.7873V25.3184C67.1058 25.446 67.0633 25.554 66.9782 25.639C66.8964 25.7273 66.7885 25.7699 66.6544 25.7699H65.5321C65.4177 25.7699 65.313 25.7273 65.2214 25.639C65.1298 25.554 65.084 25.446 65.084 25.3184V24.1407C65.084 23.7513 64.9793 23.4438 64.7699 23.2214C64.5638 22.9956 64.2661 22.8844 63.8833 22.8844H63.2585C62.8953 22.8844 62.614 22.9956 62.4144 23.2214C62.2181 23.4438 62.1167 23.7449 62.1167 24.121V24.6674C62.1167 25.0077 62.1756 25.2726 62.2966 25.4624C62.4144 25.6553 62.6434 25.8582 62.9804 26.0676L65.3032 27.4384C65.9051 27.7917 66.3435 28.181 66.6249 28.6096C66.9062 29.0349 67.0469 29.5813 67.0469 30.2454V31.9891C67.0469 32.7873 66.782 33.4482 66.2519 33.9651C65.722 34.482 65.0676 34.7405 64.2955 34.7405H63.0393C62.1625 34.7405 61.4395 34.5049 60.8637 34.0338C60.2879 33.5627 60 32.8921 60 32.0185ZM68.241 25.4362C68.241 25.1483 68.4047 25.0043 68.7318 25.0043H69.7557C70.0305 25.0043 70.2007 25.1352 70.2628 25.4002L71.6827 32.0807C71.6958 32.1559 71.7416 32.1952 71.82 32.1952C71.8823 32.1952 71.9183 32.1559 71.9313 32.0807L72.7885 28.5082L73.5213 25.4526C73.5802 25.1647 73.7373 25.0207 73.9957 25.0207H74.8724C75.2159 25.0207 75.3926 25.1581 75.3991 25.4329C75.3991 25.5082 75.3566 25.6947 75.2749 25.9988L72.687 36.3599C72.4842 37.1941 72.1833 37.7863 71.7776 38.1396C71.3686 38.4896 70.7733 38.6663 69.9848 38.6663C69.3468 38.6663 68.9117 38.6042 68.6827 38.4798C68.4537 38.3522 68.3392 38.1527 68.3392 37.8745V37.3348C68.3392 37.0076 68.4897 36.844 68.7874 36.844C68.8136 36.844 68.9411 36.8636 69.1702 36.8996C69.4025 36.939 69.6413 36.9586 69.8899 36.9586C70.4787 36.9586 70.8517 36.6052 71.012 35.8986L71.2901 34.7437H70.9335C70.6816 34.7437 70.5278 34.626 70.4788 34.3871L68.2999 25.7928C68.2607 25.6456 68.241 25.5278 68.241 25.4362ZM76.5442 32.2803V31.7928C76.5442 31.6652 76.5834 31.5605 76.6685 31.4722C76.7504 31.3871 76.8583 31.3446 76.9924 31.3446H78.0459C78.1734 31.3446 78.2814 31.3871 78.3665 31.4689C78.4548 31.5507 78.4973 31.6586 78.4973 31.7896V32.1396C78.4973 32.735 78.8048 33.0327 79.4265 33.0327H80.6238C81.1734 33.0327 81.4483 32.7775 81.4483 32.2671V31.7961C81.4483 31.4329 81.265 31.1974 80.8954 31.0894L78.566 30.4842C77.915 30.314 77.4308 30.0556 77.1135 29.7121C76.7961 29.3719 76.6391 28.868 76.6391 28.2039V27.5332C76.6391 26.7873 76.8648 26.1821 77.3131 25.7176C77.7645 25.2562 78.373 25.0239 79.1451 25.0239H80.8463C81.5791 25.0239 82.1713 25.2399 82.6227 25.6685C83.0709 26.0971 83.2967 26.6957 83.2967 27.4645V27.9127C83.2967 28.0403 83.2541 28.145 83.1724 28.2333C83.0906 28.3184 82.9826 28.361 82.8485 28.361H81.818C81.5202 28.361 81.3698 28.2203 81.3632 27.9357V27.4907C81.3632 27.229 81.2945 27.0392 81.1571 26.9149C81.0197 26.7938 80.8463 26.7317 80.6435 26.7317H79.4265C79.1647 26.7317 78.9619 26.8005 78.818 26.9378C78.674 27.0752 78.602 27.2715 78.602 27.5202V27.9913C78.602 28.3577 78.7787 28.5867 79.1287 28.6849L81.324 29.2639C81.9979 29.4471 82.5082 29.7154 82.8616 30.0654C83.2149 30.4155 83.3915 30.9029 83.3915 31.5278V32.2344C83.3915 32.9804 83.1659 33.5856 82.7177 34.0469C82.2662 34.5082 81.6577 34.7405 80.8855 34.7405H78.9717C77.3523 34.7405 76.5442 33.9193 76.5442 32.2803ZM84.4122 26.2803V25.4558C84.4122 25.3413 84.4548 25.2399 84.5366 25.1548C84.6184 25.0665 84.7264 25.0239 84.8572 25.0239H85.8452V22.6652C85.8452 22.5376 85.8877 22.4297 85.9761 22.3446C86.0612 22.2595 86.1691 22.217 86.2967 22.217H87.3762C87.5038 22.217 87.6118 22.2595 87.6969 22.3446C87.7852 22.4297 87.8277 22.5376 87.8277 22.6652V25.0239H89.6926C89.8201 25.0239 89.9281 25.0665 90.0131 25.1548C90.1015 25.2399 90.144 25.3413 90.144 25.4558V26.2803C90.144 26.4078 90.1015 26.5158 90.0131 26.6009C89.9281 26.6892 89.8201 26.7317 89.6926 26.7317H87.8277V32.434C87.8277 32.8724 88.0829 33.0916 88.5933 33.0916C88.819 33.0916 89.0415 33.072 89.2607 33.0327C89.4799 32.9968 89.6402 32.9771 89.7351 32.9771C89.9575 32.9771 90.0721 33.1014 90.0721 33.3501V34.0567C90.0721 34.1974 90.0361 34.3185 89.9706 34.4133C89.9019 34.5082 89.7252 34.5965 89.4373 34.6783C89.1494 34.7601 88.7373 34.7993 88.2007 34.7993C86.6304 34.7993 85.8452 34.0665 85.8452 32.6042V26.7317H84.8572C84.7329 26.7317 84.6249 26.6892 84.5398 26.6009C84.4548 26.5158 84.4122 26.4078 84.4122 26.2803ZM91.3153 31.9891V27.7754C91.3153 26.9771 91.5704 26.3163 92.0808 25.7993C92.5911 25.2824 93.2193 25.0239 93.9587 25.0239H95.4341C96.18 25.0239 96.8114 25.2824 97.3218 25.7993C97.8321 26.3163 98.0873 26.9771 98.0873 27.7754V29.8332C98.0873 29.9608 98.0448 30.0687 97.9564 30.1537C97.8714 30.2421 97.7601 30.2846 97.6261 30.2846H93.2782V31.8157C93.2782 32.1919 93.3763 32.4896 93.5693 32.7055C93.7656 32.9248 94.047 33.0327 94.4199 33.0327H94.9826C95.3491 33.0327 95.6304 32.9248 95.8267 32.7089C96.0263 32.493 96.1244 32.1952 96.1244 31.8189V31.6848C96.1244 31.5573 96.1702 31.4493 96.2585 31.361C96.3469 31.2726 96.4516 31.2268 96.5759 31.2268H97.6261C97.7569 31.2268 97.8649 31.2693 97.9532 31.3577C98.0416 31.4427 98.0873 31.5507 98.0873 31.6848V31.9924C98.0873 32.8921 97.8093 33.5758 97.2498 34.0403C96.6904 34.5082 95.9609 34.7405 95.0612 34.7405H94.2956C93.3926 34.7405 92.673 34.5082 92.1299 34.0403C91.5868 33.5758 91.3153 32.8921 91.3153 31.9891ZM93.2782 28.675H96.1244V27.9717C96.1244 27.5889 96.0263 27.2847 95.8267 27.0621C95.6304 26.8429 95.3491 26.7317 94.9826 26.7317H94.4199C94.0535 26.7317 93.7721 26.8429 93.5759 27.0621C93.3763 27.2847 93.2782 27.5889 93.2782 27.9717V28.675ZM99.7721 34.289V25.4754C99.7721 25.3478 99.8147 25.2399 99.903 25.1548C99.9881 25.0665 100.096 25.0239 100.224 25.0239H101.284C101.411 25.0239 101.519 25.0665 101.604 25.1548C101.693 25.2399 101.735 25.3478 101.735 25.4754V25.8092C102.18 25.2857 102.808 25.0239 103.616 25.0239H103.731C104.751 25.0239 105.455 25.3904 105.844 26.1265C106.394 25.3904 107.149 25.0239 108.111 25.0239H108.321C109.109 25.0239 109.757 25.2628 110.261 25.7437C110.768 26.2214 111.02 26.8789 111.02 27.7164V34.289C111.02 34.4166 110.977 34.5245 110.889 34.6096C110.804 34.698 110.696 34.7405 110.568 34.7405H109.508C109.381 34.7405 109.273 34.698 109.188 34.6096C109.099 34.5245 109.057 34.4166 109.057 34.289V27.9487C109.057 27.5725 108.955 27.2748 108.753 27.0588C108.55 26.8397 108.268 26.7317 107.908 26.7317H107.516C107.176 26.7317 106.898 26.8397 106.685 27.0588C106.472 27.2748 106.368 27.5398 106.368 27.8539V34.289C106.368 34.4166 106.325 34.5245 106.243 34.6096C106.161 34.698 106.054 34.7405 105.919 34.7405H104.872C104.745 34.7405 104.64 34.698 104.552 34.6096C104.467 34.5245 104.424 34.4166 104.424 34.289V27.9487C104.424 27.5725 104.323 27.2748 104.117 27.0588C103.914 26.8397 103.636 26.7317 103.286 26.7317H102.893C102.53 26.7317 102.245 26.8429 102.043 27.0654C101.836 27.2911 101.735 27.5856 101.735 27.9487V34.289C101.735 34.4166 101.693 34.5245 101.604 34.6096C101.519 34.698 101.411 34.7405 101.284 34.7405H100.224C100.096 34.7405 99.9881 34.698 99.903 34.6096C99.8147 34.5245 99.7721 34.4166 99.7721 34.289ZM112.613 32.2803V31.7928C112.613 31.6652 112.652 31.5605 112.737 31.4722C112.819 31.3871 112.927 31.3446 113.061 31.3446H114.115C114.242 31.3446 114.35 31.3871 114.435 31.4689C114.523 31.5507 114.566 31.6586 114.566 31.7896V32.1396C114.566 32.735 114.874 33.0327 115.495 33.0327H116.693C117.242 33.0327 117.517 32.7775 117.517 32.2671V31.7961C117.517 31.4329 117.334 31.1974 116.964 31.0894L114.635 30.4842C113.984 30.314 113.499 30.0556 113.182 29.7121C112.865 29.3719 112.708 28.868 112.708 28.2039V27.5332C112.708 26.7873 112.934 26.1821 113.382 25.7176C113.833 25.2562 114.442 25.0239 115.214 25.0239H116.915C117.648 25.0239 118.24 25.2399 118.691 25.6685C119.14 26.0971 119.365 26.6957 119.365 27.4645V27.9127C119.365 28.0403 119.323 28.145 119.241 28.2333C119.159 28.3184 119.051 28.361 118.917 28.361H117.887C117.589 28.361 117.438 28.2203 117.432 27.9357V27.4907C117.432 27.229 117.363 27.0392 117.226 26.9149C117.088 26.7938 116.915 26.7317 116.712 26.7317H115.495C115.233 26.7317 115.031 26.8005 114.887 26.9378C114.743 27.0752 114.671 27.2715 114.671 27.5202V27.9913C114.671 28.3577 114.847 28.5867 115.197 28.6849L117.393 29.2639C118.067 29.4471 118.577 29.7154 118.93 30.0654C119.284 30.4155 119.46 30.9029 119.46 31.5278V32.2344C119.46 32.9804 119.235 33.5856 118.786 34.0469C118.335 34.5082 117.726 34.7405 116.954 34.7405H115.04C113.421 34.7405 112.613 33.9193 112.613 32.2803ZM120.972 31.9891V27.7754C120.972 26.9771 121.227 26.3163 121.737 25.7993C122.248 25.2824 122.876 25.0239 123.615 25.0239H125.091C125.836 25.0239 126.468 25.2824 126.978 25.7993C127.489 26.3163 127.744 26.9771 127.744 27.7754V29.8332C127.744 29.9608 127.701 30.0687 127.613 30.1537C127.528 30.2421 127.417 30.2846 127.282 30.2846H122.935V31.8157C122.935 32.1919 123.033 32.4896 123.226 32.7055C123.422 32.9248 123.703 33.0327 124.076 33.0327H124.639C125.006 33.0327 125.287 32.9248 125.483 32.7089C125.683 32.493 125.781 32.1952 125.781 31.8189V31.6848C125.781 31.5573 125.827 31.4493 125.915 31.361C126.003 31.2726 126.108 31.2268 126.232 31.2268H127.282C127.413 31.2268 127.521 31.2693 127.61 31.3577C127.698 31.4427 127.744 31.5507 127.744 31.6848V31.9924C127.744 32.8921 127.466 33.5758 126.906 34.0403C126.347 34.5082 125.617 34.7405 124.718 34.7405H123.952C123.049 34.7405 122.329 34.5082 121.786 34.0403C121.243 33.5758 120.972 32.8921 120.972 31.9891ZM122.935 28.675H125.781V27.9717C125.781 27.5889 125.683 27.2847 125.483 27.0621C125.287 26.8429 125.006 26.7317 124.639 26.7317H124.076C123.71 26.7317 123.429 26.8429 123.232 27.0621C123.033 27.2847 122.935 27.5889 122.935 27.9717V28.675ZM129.291 31.9891V27.7754C129.291 26.9117 129.563 26.2378 130.106 25.7536C130.649 25.2661 131.346 25.0239 132.193 25.0239H133.152C134.002 25.0239 134.699 25.2661 135.245 25.7503C135.792 26.2378 136.063 26.9084 136.063 27.772V28.459C136.063 28.5867 136.021 28.6947 135.932 28.7797C135.847 28.868 135.736 28.9105 135.602 28.9105H134.552C134.434 28.9105 134.333 28.868 134.238 28.7829C134.146 28.6947 134.1 28.59 134.1 28.4624V27.9455C134.1 27.5692 133.999 27.2748 133.793 27.0556C133.59 26.8397 133.312 26.7317 132.959 26.7317H132.396C132.029 26.7317 131.748 26.8397 131.552 27.0588C131.352 27.2748 131.254 27.5725 131.254 27.9487V31.8157C131.254 32.1919 131.352 32.4896 131.545 32.7055C131.742 32.9248 132.023 33.0327 132.396 33.0327H132.959C133.325 33.0327 133.606 32.9248 133.803 32.7055C134.002 32.4896 134.1 32.1919 134.1 31.8157V31.1091C134.1 30.9815 134.146 30.8735 134.234 30.7884C134.323 30.7001 134.428 30.6576 134.552 30.6576H135.602C135.733 30.6576 135.841 30.7001 135.929 30.7884C136.018 30.8735 136.063 30.9815 136.063 31.1091V31.9891C136.063 32.8659 135.792 33.5431 135.249 34.0207C134.706 34.5016 134.009 34.7405 133.152 34.7405H132.193C131.333 34.7405 130.633 34.5016 130.096 34.0207C129.559 33.5431 129.291 32.8659 129.291 31.9891ZM137.67 32.0284V25.4754C137.67 25.3478 137.712 25.2399 137.8 25.1548C137.886 25.0665 137.993 25.0239 138.121 25.0239H139.181C139.309 25.0239 139.417 25.0665 139.502 25.1548C139.59 25.2399 139.633 25.3478 139.633 25.4754V31.8157C139.633 32.1919 139.731 32.4896 139.924 32.7055C140.12 32.9248 140.401 33.0327 140.771 33.0327H141.164C141.514 33.0327 141.792 32.9248 141.995 32.7055C142.201 32.4896 142.302 32.1919 142.302 31.8157V25.4754C142.302 25.3478 142.345 25.2399 142.426 25.1548C142.508 25.0665 142.616 25.0239 142.75 25.0239H143.817C143.944 25.0239 144.049 25.0665 144.137 25.1548C144.223 25.2399 144.265 25.3478 144.265 25.4754V34.289C144.265 34.4166 144.223 34.5245 144.141 34.6096C144.059 34.698 143.951 34.7405 143.817 34.7405H142.75C142.623 34.7405 142.518 34.698 142.43 34.6096C142.345 34.5245 142.302 34.4166 142.302 34.289V33.9716C141.867 34.4853 141.245 34.7405 140.437 34.7405C139.6 34.7405 138.929 34.4984 138.425 34.0109C137.922 33.5267 137.67 32.8659 137.67 32.0284ZM146.163 34.289V25.4754C146.163 25.3478 146.205 25.2399 146.293 25.1548C146.378 25.0665 146.486 25.0239 146.614 25.0239H147.658C147.785 25.0239 147.89 25.0665 147.978 25.1548C148.063 25.2399 148.106 25.3478 148.106 25.4754V26.1265C148.528 25.3904 149.195 25.0239 150.111 25.0239H150.618C150.746 25.0239 150.854 25.0698 150.939 25.1614C151.027 25.2562 151.07 25.361 151.07 25.4754V26.6336C151.07 26.7612 151.027 26.8692 150.946 26.9542C150.86 27.0425 150.752 27.085 150.618 27.085H149.908C148.721 27.085 148.125 27.6772 148.125 28.8583V34.289C148.125 34.4166 148.083 34.5245 147.995 34.6096C147.91 34.698 147.802 34.7405 147.674 34.7405H146.614C146.486 34.7405 146.378 34.698 146.293 34.6096C146.205 34.5245 146.163 34.4166 146.163 34.289ZM152.228 31.9891V27.7754C152.228 26.9771 152.483 26.3163 152.993 25.7993C153.504 25.2824 154.132 25.0239 154.871 25.0239H156.347C157.093 25.0239 157.724 25.2824 158.235 25.7993C158.745 26.3163 159 26.9771 159 27.7754V29.8332C159 29.9608 158.958 30.0687 158.869 30.1537C158.784 30.2421 158.673 30.2846 158.539 30.2846H154.191V31.8157C154.191 32.1919 154.289 32.4896 154.482 32.7055C154.678 32.9248 154.96 33.0327 155.333 33.0327H155.895C156.262 33.0327 156.543 32.9248 156.739 32.7089C156.939 32.493 157.037 32.1952 157.037 31.8189V31.6848C157.037 31.5573 157.083 31.4493 157.171 31.361C157.26 31.2726 157.364 31.2268 157.489 31.2268H158.539C158.67 31.2268 158.778 31.2693 158.866 31.3577C158.954 31.4427 159 31.5507 159 31.6848V31.9924C159 32.8921 158.722 33.5758 158.163 34.0403C157.603 34.5082 156.874 34.7405 155.974 34.7405H155.208C154.305 34.7405 153.586 34.5082 153.043 34.0403C152.5 33.5758 152.228 32.8921 152.228 31.9891ZM154.191 28.675H157.037V27.9717C157.037 27.5889 156.939 27.2847 156.739 27.0621C156.543 26.8429 156.262 26.7317 155.895 26.7317H155.333C154.966 26.7317 154.685 26.8429 154.489 27.0621C154.289 27.2847 154.191 27.5889 154.191 27.9717V28.675Z" fill="#2D2D2D"/>
<defs>
<linearGradient id="paint0_linear_1302_2996" x1="-30.5759" y1="-86.7905" x2="-52.0848" y2="-127.243" gradientUnits="userSpaceOnUse">
<stop stop-color="#1A3051"/>
<stop offset="1" stop-color="#797C80"/>
</linearGradient>
</defs>
</svg>
