<svg width="0" height="0" class="hidden">
  <symbol fill="none" xmlns="http://www.w3.org/2000/svg" viewBox="0 0 8 12" id="ic_arr_hor">
    <path d="M6.5 1L1.5 6L6.5 11" stroke="currentColor" stroke-width="2" stroke-linecap="round"></path>
  </symbol>
  <symbol fill="none" xmlns="http://www.w3.org/2000/svg" viewBox="0 0 18 11" id="ic_arr_ver">
    <path d="M1 1L9 9L17 1" stroke="currentColor" stroke-width="2"></path>
  </symbol>
  <symbol fill="none" xmlns="http://www.w3.org/2000/svg" viewBox="0 0 9 7" id="ic_arrow_buy">
    <path d="M0.500977 3.5H7.49908M7.49908 3.5L4.49908 0.5M7.49908 3.5L4.49908 6.5" stroke="currentColor" stroke-linecap="round"></path>
  </symbol>
  <symbol fill="none" xmlns="http://www.w3.org/2000/svg" viewBox="0 0 119.389 119.389" id="ic_arrow_diagonal">
    <path id="Vector 84" d="M5.5 3.8891L5.5 113.889L115.5 113.889M5.5 113.889L115.5 3.8891" stroke="currentColor" stroke-opacity="1.000000" stroke-width="11.000000"></path>
  </symbol>
  <symbol fill="none" xmlns="http://www.w3.org/2000/svg" viewBox="0 0 28.0039 28.0039" id="ic_arrow_diagonal2">
    <path d="M27.0039 1.00391L27.0039 27.0039L1.00391 27.0039M27.0039 27.0039L1.00391 1.00391" stroke="currentColor" stroke-opacity="1.000000" stroke-width="2.000000"></path>
  </symbol>
  <symbol xmlns="http://www.w3.org/2000/svg" viewBox="0 0 28 18" id="ic_arrow_hor">
    <path d="M26 10.1C26.6075 10.1 27.1 9.60751 27.1 9C27.1 8.39249 26.6075 7.9 26 7.9L26 10.1ZM1.22218 8.22218C0.792606 8.65176 0.792606 9.34824 1.22218 9.77782L8.22254 16.7782C8.65212 17.2078 9.3486 17.2078 9.77818 16.7782C10.2078 16.3486 10.2078 15.6521 9.77818 15.2225L3.55564 9L9.77817 2.77746C10.2078 2.34788 10.2078 1.6514 9.77817 1.22183C9.3486 0.79225 8.65212 0.79225 8.22254 1.22183L1.22218 8.22218ZM26 7.9L2 7.9L2 10.1L26 10.1L26 7.9Z" fill="currentColor"></path>
  </symbol>
  <symbol fill="none" xmlns="http://www.w3.org/2000/svg" viewBox="0 0 15 15" id="ic_calendar">
    <rect id="vuesax/linear/calendar" width="15.000000" height="15.000000" fill="currentColor" fill-opacity="0"></rect>
    <path id="Vector" d="M5 1.25L5 3.125" stroke="currentColor" stroke-opacity="1.000000" stroke-width="0.937500" stroke-linejoin="round" stroke-linecap="round"></path>
    <path id="Vector" d="M10 1.25L10 3.125" stroke="currentColor" stroke-opacity="1.000000" stroke-width="0.937500" stroke-linejoin="round" stroke-linecap="round"></path>
    <path id="Vector" d="M2.1875 5.68115L12.8125 5.68115" stroke="currentColor" stroke-opacity="1.000000" stroke-width="0.937500" stroke-linejoin="round" stroke-linecap="round"></path>
    <path id="Vector" d="M13.125 10.625C13.125 12.5 12.1875 13.75 10 13.75L5 13.75C2.8125 13.75 1.875 12.5 1.875 10.625L1.875 5.3125C1.875 3.4375 2.8125 2.1875 5 2.1875L10 2.1875C12.1875 2.1875 13.125 3.4375 13.125 5.3125L13.125 10.625Z" stroke="currentColor" stroke-opacity="1.000000" stroke-width="0.937500" stroke-linejoin="round"></path>
    <g opacity="0.000000"></g>
    <path id="Vector" d="M9.8092 8.5625L9.81482 8.5625" stroke="currentColor" stroke-opacity="1.000000" stroke-width="1.250000" stroke-linejoin="round" stroke-linecap="round"></path>
    <path id="Vector" d="M9.8092 10.4375L9.81482 10.4375" stroke="currentColor" stroke-opacity="1.000000" stroke-width="1.250000" stroke-linejoin="round" stroke-linecap="round"></path>
    <path id="Vector" d="M7.49719 8.5625L7.50281 8.5625" stroke="currentColor" stroke-opacity="1.000000" stroke-width="1.250000" stroke-linejoin="round" stroke-linecap="round"></path>
    <path id="Vector" d="M7.49719 10.4375L7.50281 10.4375" stroke="currentColor" stroke-opacity="1.000000" stroke-width="1.250000" stroke-linejoin="round" stroke-linecap="round"></path>
    <path id="Vector" d="M5.18396 8.5625L5.18958 8.5625" stroke="currentColor" stroke-opacity="1.000000" stroke-width="1.250000" stroke-linejoin="round" stroke-linecap="round"></path>
    <path id="Vector" d="M5.18396 10.4375L5.18958 10.4375" stroke="currentColor" stroke-opacity="1.000000" stroke-width="1.250000" stroke-linejoin="round" stroke-linecap="round"></path>
  </symbol>
  <symbol xmlns="http://www.w3.org/2000/svg" viewBox="0 0 26 26" id="ic_cart">
    <path d="M12.6608 21.3391C12.6608 22.9188 11.3802 24.1994 9.80046 24.1994C8.22076 24.1994 6.94016 22.9188 6.94016 21.3391C6.94016 20.2852 7.51019 19.3644 8.3588 18.8682C8.34338 18.8273 7.12072 13.844 4.69092 3.91832C4.67164 3.83939 4.6282 3.76845 4.56665 3.7154C4.5051 3.66236 4.42852 3.62986 4.34761 3.62244L0.910076 3.6208C0.407485 3.62075 0 3.21332 0 2.71067C0 2.22478 0.380734 1.82786 0.860149 1.80193L4.31198 1.8006C5.30751 1.8006 6.17705 2.46553 6.44165 3.41941L6.89171 5.25794L25.0899 5.25809C25.5925 5.25809 25.9999 5.66558 25.9999 6.16817C25.9999 6.20436 25.9879 6.29922 25.964 6.45278L23.6949 15.5534C23.5867 15.9873 23.1839 16.2701 22.7528 16.2415L9.57492 16.2449L10.0478 18.1804C10.0671 18.2594 10.1105 18.3303 10.1721 18.3834C10.2336 18.4364 10.3102 18.4689 10.3911 18.4763L20.9816 18.4788C22.5613 18.4788 23.8419 19.7594 23.8419 21.3391C23.8419 22.8196 22.7171 24.0374 21.2754 24.1845C21.1778 24.1944 21.0797 24.1994 20.9816 24.1994C19.4019 24.1994 18.1213 22.9188 18.1213 21.3391C18.1209 20.983 18.1871 20.63 18.3165 20.2982H12.4655C12.595 20.63 12.6612 20.983 12.6608 21.3391ZM20.9817 20.299C20.4073 20.299 19.9416 20.7647 19.9416 21.3391C19.9416 21.9135 20.4073 22.3792 20.9817 22.3792C21.5561 22.3792 22.0218 21.9135 22.0218 21.3391C22.0218 20.7647 21.5561 20.299 20.9817 20.299ZM9.80041 20.299C9.22599 20.299 8.76031 20.7647 8.76031 21.3391C8.76031 21.9135 9.22599 22.3792 9.80041 22.3792C10.3748 22.3792 10.8405 21.9135 10.8405 21.3391C10.8406 20.7647 10.3749 20.299 9.80041 20.299ZM23.9319 7.07809H7.33641L9.13063 14.4252L22.1004 14.4247L23.9319 7.07809Z" fill="currentColor"></path>
  </symbol>
  <symbol xmlns="http://www.w3.org/2000/svg" viewBox="0 0 11 9" id="ic_check">
    <path d="M9.04754 0.830177L4.12817 6.14478L1.95246 3.79428L1.78933 3.61804L1.60668 3.77395L0.83769 4.43037L0.639739 4.59934L0.816533 4.79034L3.9447 8.16982L4.12817 8.36803L4.31163 8.16982L10.1835 1.82624L10.3603 1.63524L10.1623 1.46627L9.39332 0.809854L9.21067 0.653944L9.04754 0.830177Z" fill="currentColor" stroke="currentColor" stroke-width="0.5"></path>
  </symbol>
  <symbol fill="none" xmlns="http://www.w3.org/2000/svg" viewBox="0 0 24.4143 16.1213" id="ic_check2">
    <path id="Vector 197" d="M0.707153 5.70715L9.70715 14.7072L23.7072 0.707153" stroke="currentColor" stroke-opacity="1.000000" stroke-width="2.000000"></path>
  </symbol>
  <symbol fill="none" xmlns="http://www.w3.org/2000/svg" viewBox="0 0 25.2071 25.2071" id="ic_close">
    <path d="M0.353546 0.353554L24.8535 24.8536" stroke="currentColor" stroke-opacity="1.000000" stroke-width="1.000000"></path>
    <path d="M24.8535 0.353554L0.353546 24.8536" stroke="currentColor" stroke-opacity="1.000000" stroke-width="1.000000"></path>
  </symbol>
  <symbol fill="none" xmlns="http://www.w3.org/2000/svg" viewBox="0 0 20 20" id="ic_compare">
    <path fill-rule="evenodd" clip-rule="evenodd" d="M9.99999 2C10.5523 2 11 2.34147 11 2.76271V17H9V2.76271C9 2.34147 9.44772 2 9.99999 2Z" fill="currentColor"></path>
    <path fill-rule="evenodd" clip-rule="evenodd" d="M17 6C17.5523 6 18 6.34359 18 6.76744V17H16V6.76744C16 6.34359 16.4477 6 17 6Z" fill="currentColor"></path>
    <path fill-rule="evenodd" clip-rule="evenodd" d="M2.99393 10C3.54352 9.99948 3.98961 10.3473 3.99027 10.7767L4 16.9981L2.00973 17L2 10.7786C1.99934 10.3491 2.44432 10.0005 2.99393 10Z" fill="currentColor"></path>
  </symbol>
  <symbol xmlns="http://www.w3.org/2000/svg" viewBox="0 0 22 22" id="ic_email">
    <path d="M21.2157 3.14258H0.787109L11.0014 11.556L21.3312 3.16615C21.2934 3.1551 21.2547 3.14723 21.2157 3.14258Z" fill="currentColor"></path>
    <path d="M11.4958 13.181C11.2063 13.418 10.7898 13.418 10.5003 13.181L0 4.53027V18.0713C0 18.5052 0.351776 18.857 0.785729 18.857H21.2143C21.6482 18.857 22 18.5052 22 18.0713V4.64657L11.4958 13.181Z" fill="currentColor"></path>
  </symbol>
  <symbol fill="none" xmlns="http://www.w3.org/2000/svg" viewBox="0 0 20 18" id="ic_favorite">
    <path fill-rule="evenodd" clip-rule="evenodd" d="M9.77385 17.3619C7.72383 16.1002 5.81673 14.6153 4.08667 12.9338C2.87037 11.7228 1.9444 10.2465 1.37971 8.61786C0.363535 5.45862 1.5505 1.84189 4.87229 0.771547C6.61809 0.209522 8.52477 0.530744 9.99588 1.63473C11.4675 0.532089 13.3736 0.210979 15.1195 0.771547C18.4413 1.84189 19.6368 5.45862 18.6206 8.61786C18.0559 10.2465 17.1299 11.7228 15.9136 12.9338C14.1836 14.6153 12.2765 16.1002 10.2264 17.3619L10.0044 17.5L9.77385 17.3619Z" stroke="currentColor" stroke-width="0.85" stroke-linecap="round" stroke-linejoin="round"></path>
    <path d="M13.5332 4.32831C14.5393 4.6497 15.2542 5.55297 15.3435 6.61574" stroke="currentColor" stroke-width="0.85" stroke-linecap="round" stroke-linejoin="round"></path>
  </symbol>
  <symbol xmlns="http://www.w3.org/2000/svg" viewBox="0 0 23 23" id="ic_location">
    <path d="M11.6771 0.31543C7.81387 0.31543 4.5918 3.42736 4.5918 7.40068C4.5918 8.91229 5.04603 10.2602 5.91777 11.5233L11.1348 19.664C11.3879 20.0598 11.9667 20.059 12.2193 19.664L17.459 11.4956C18.3119 10.2898 18.7623 8.87386 18.7623 7.40068C18.7623 3.49388 15.5839 0.31543 11.6771 0.31543ZM11.6771 10.6213C9.90132 10.6213 8.45648 9.17642 8.45648 7.40068C8.45648 5.62495 9.90132 4.18011 11.6771 4.18011C13.4528 4.18011 14.8976 5.62495 14.8976 7.40068C14.8976 9.17642 13.4528 10.6213 11.6771 10.6213Z" fill="currentColor"></path>
    <path d="M16.7128 15.1175L13.4694 20.1883C12.6299 21.4972 10.7201 21.4929 9.88464 20.1895L6.63598 15.1188C3.77766 15.7797 2.01562 16.9903 2.01562 18.437C2.01562 20.9475 6.99368 22.3017 11.6773 22.3017C16.361 22.3017 21.339 20.9475 21.339 18.437C21.339 16.9893 19.5746 15.778 16.7128 15.1175Z" fill="currentColor"></path>
  </symbol>
  <symbol xmlns="http://www.w3.org/2000/svg" viewBox="0 0 46 49" id="ic_pdf">
    <path d="M37.155 16.0785L27.4698 6.81445C27.3497 6.69961 27.1496 6.62305 26.9895 6.62305H13.0221C11.1011 6.62305 9.54025 8.11602 9.54025 9.95352V22.8543H5.41806C4.29746 22.8543 3.41699 23.6965 3.41699 24.7684V35.9848C3.41699 37.0566 4.29746 37.8988 5.41806 37.8988H9.54025V39.1238C9.54025 40.9613 11.1011 42.4543 13.0221 42.4543H33.9132C35.8343 42.4543 37.3951 40.9613 37.3951 39.1238V16.5379C37.3551 16.3848 37.275 16.1934 37.155 16.0785ZM34.9538 15.8871H29.711C28.5904 15.8871 27.6299 15.0066 27.6299 13.8965V8.88164L34.9538 15.8871ZM4.81774 35.9465V24.7301C4.81774 24.4238 5.09789 24.1559 5.41806 24.1559H25.6688C25.989 24.1559 26.2692 24.4238 26.2692 24.7301V35.9465C26.2692 36.2527 25.989 36.5207 25.6688 36.5207H5.41806C5.09789 36.5207 4.81774 36.2527 4.81774 35.9465ZM33.9132 41.0379H13.0221C11.9015 41.0379 10.941 40.1574 10.941 39.0473V37.8223H25.6288C26.7494 37.8223 27.6299 36.9801 27.6299 35.9082V24.7301C27.6299 23.6582 26.7494 22.816 25.6288 22.816H10.941V9.91523C10.941 8.84336 11.8615 7.92461 13.0221 7.92461H26.2692V13.8965C26.2692 15.734 27.83 17.227 29.751 17.227H35.9943V39.0855C35.9543 40.1574 35.0338 41.0379 33.9132 41.0379Z" fill="currentColor"></path>
    <path d="M11.702 29.4383C11.702 28.3281 10.7815 27.5625 9.54084 27.5625H6.93945V33.075H8.18011V31.2758H9.54084C10.7815 31.3141 11.702 30.5484 11.702 29.4383ZM9.38075 30.2039H8.14009V28.6344H9.38075C9.98107 28.6344 10.4213 28.9406 10.4213 29.4C10.4213 29.8594 9.98107 30.2039 9.38075 30.2039Z" fill="currentColor"></path>
    <path d="M18.3042 30.3187C18.3042 28.7109 16.9435 27.5625 14.9825 27.5625H12.9014V33.075H14.9825C16.9435 33.1133 18.3042 31.9648 18.3042 30.3187ZM14.182 28.6344H15.1826C16.1431 28.5578 16.9835 29.2852 17.0636 30.2039C17.1436 31.2375 16.2632 32.0797 15.1826 32.0031H14.182V28.6344Z" fill="currentColor"></path>
    <path d="M20.9457 30.9313H23.8273V29.8594H20.9457V28.6344H24.1474V27.5625H19.7051V33.1133H20.9457V30.9313Z" fill="currentColor"></path>
  </symbol>
  <symbol fill="none" xmlns="http://www.w3.org/2000/svg" viewBox="0 0 14 14" id="ic_phone">
    <path d="M11.708 12.4789C10.4052 13.7817 7.06855 12.5575 4.25551 9.74449C1.44248 6.93145 0.218261 3.59485 1.52114 2.29197L2.37898 1.43412C2.9712 0.841904 3.94703 0.857558 4.55856 1.46909L5.88728 2.79781C6.49881 3.40934 6.51447 4.38517 5.92225 4.97739L5.73799 5.16165C5.41825 5.48139 5.38696 5.99721 5.68407 6.35725C5.97064 6.70452 6.2796 7.05043 6.61458 7.38542C6.94957 7.7204 7.29548 8.02936 7.64275 8.31593C8.00279 8.61304 8.51861 8.58175 8.83835 8.26201L9.02261 8.07775C9.61483 7.48553 10.5907 7.50119 11.2022 8.11272L12.5309 9.44144C13.1424 10.053 13.1581 11.0288 12.5659 11.621L11.708 12.4789Z" stroke="currentColor"></path>
  </symbol>
  <symbol xmlns="http://www.w3.org/2000/svg" viewBox="0 0 23 22" id="ic_phone2">
    <path d="M21.1545 14.4405C19.7463 14.4405 18.3637 14.2298 17.0535 13.8157C16.4115 13.6062 15.6222 13.7984 15.2304 14.1833L12.6443 16.0507C9.64509 14.5193 7.79766 12.7528 6.21857 9.90556L8.11337 7.49633C8.60565 7.02608 8.78223 6.33915 8.57067 5.69462C8.13583 4.43478 7.91494 3.11289 7.91494 1.76539C7.915 0.791943 7.08706 0 6.06942 0H1.84557C0.82794 0 0 0.791943 0 1.76533C0 12.9229 9.48978 22 21.1545 22C22.1721 22 23.0001 21.2081 23.0001 20.2347V16.2058C23 15.2324 22.1721 14.4405 21.1545 14.4405Z" fill="currentColor"></path>
  </symbol>
  <symbol xmlns="http://www.w3.org/2000/svg" viewBox="0 0 24 24" id="ic_remove">
    <path d="M19.6155 5.07691H16.1539V4.3846C16.1539 3.83377 15.9351 3.30549 15.5456 2.916C15.1561 2.5265 14.6278 2.30768 14.077 2.30768H9.92315C9.37232 2.30768 8.84404 2.5265 8.45455 2.916C8.06505 3.30549 7.84623 3.83377 7.84623 4.3846V5.07691H4.38469C4.20108 5.07691 4.02499 5.14985 3.89516 5.27968C3.76532 5.40951 3.69238 5.58561 3.69238 5.76922C3.69238 5.95283 3.76532 6.12892 3.89516 6.25875C4.02499 6.38859 4.20108 6.46152 4.38469 6.46152H5.077V18.9231C5.077 19.2903 5.22288 19.6425 5.48254 19.9021C5.74221 20.1618 6.09439 20.3077 6.46161 20.3077H17.5385C17.9058 20.3077 18.2579 20.1618 18.5176 19.9021C18.7773 19.6425 18.9232 19.2903 18.9232 18.9231V6.46152H19.6155C19.7991 6.46152 19.9752 6.38859 20.105 6.25875C20.2348 6.12892 20.3078 5.95283 20.3078 5.76922C20.3078 5.58561 20.2348 5.40951 20.105 5.27968C19.9752 5.14985 19.7991 5.07691 19.6155 5.07691ZM9.23084 4.3846C9.23084 4.20099 9.30378 4.0249 9.43362 3.89507C9.56345 3.76523 9.73954 3.69229 9.92315 3.69229H14.077C14.2606 3.69229 14.4367 3.76523 14.5665 3.89507C14.6964 4.0249 14.7693 4.20099 14.7693 4.3846V5.07691H9.23084V4.3846ZM17.5385 18.9231H6.46161V6.46152H17.5385V18.9231ZM10.6155 9.92306V15.4615C10.6155 15.6451 10.5425 15.8212 10.4127 15.9511C10.2829 16.0809 10.1068 16.1538 9.92315 16.1538C9.73954 16.1538 9.56345 16.0809 9.43362 15.9511C9.30378 15.8212 9.23084 15.6451 9.23084 15.4615V9.92306C9.23084 9.73945 9.30378 9.56336 9.43362 9.43353C9.56345 9.30369 9.73954 9.23076 9.92315 9.23076C10.1068 9.23076 10.2829 9.30369 10.4127 9.43353C10.5425 9.56336 10.6155 9.73945 10.6155 9.92306ZM14.7693 9.92306V15.4615C14.7693 15.6451 14.6964 15.8212 14.5665 15.9511C14.4367 16.0809 14.2606 16.1538 14.077 16.1538C13.8934 16.1538 13.7173 16.0809 13.5875 15.9511C13.4576 15.8212 13.3847 15.6451 13.3847 15.4615V9.92306C13.3847 9.73945 13.4576 9.56336 13.5875 9.43353C13.7173 9.30369 13.8934 9.23076 14.077 9.23076C14.2606 9.23076 14.4367 9.30369 14.5665 9.43353C14.6964 9.56336 14.7693 9.73945 14.7693 9.92306Z" fill="currentColor"></path>
  </symbol>
  <symbol fill="none" xmlns="http://www.w3.org/2000/svg" viewBox="0 0 18 18" id="ic_search">
    <circle cx="8.66437" cy="8.66437" r="7.66437" stroke="currentColor" stroke-linecap="round" stroke-linejoin="round"></circle>
    <path d="M13.9961 14.393L17.001 17.3901" stroke="currentColor" stroke-linecap="round" stroke-linejoin="round"></path>
  </symbol>
  <symbol xmlns="http://www.w3.org/2000/svg" viewBox="0 0 16 15" id="ic_telegram">
    <path fill-rule="evenodd" clip-rule="evenodd" d="M12.0515 12.3688L12.0519 12.3677L12.0628 12.3405L13.937 2.89111V2.86042C13.937 2.62498 13.85 2.41944 13.6607 2.29616C13.495 2.18824 13.3045 2.18056 13.171 2.19069C13.0297 2.20142 12.8965 2.23668 12.8043 2.26603C12.7569 2.28113 12.7172 2.29568 12.6888 2.30668C12.6745 2.3122 12.663 2.31689 12.6546 2.32038L12.6463 2.32385L2.19643 6.42319L2.19355 6.42422C2.18791 6.42627 2.18044 6.42906 2.17143 6.43257C2.15346 6.43956 2.129 6.44957 2.10026 6.4626C2.04383 6.48817 1.96587 6.52763 1.88681 6.58178C1.75253 6.67374 1.49683 6.89144 1.54001 7.23658C1.57577 7.52246 1.77283 7.70402 1.90569 7.79802C1.97691 7.84841 2.04504 7.88475 2.09493 7.9085C2.12021 7.92054 2.14169 7.92976 2.15768 7.93627C2.1657 7.93953 2.1724 7.94214 2.17759 7.94411L2.18423 7.94659L2.18847 7.94817L4.01675 8.56367C4.01058 8.67838 4.02196 8.79534 4.05238 8.91073L4.96818 12.3847C5.07676 12.7966 5.4494 13.0836 5.87539 13.0833C6.25722 13.083 6.59586 12.852 6.73972 12.5074L8.16953 10.9786L10.6251 12.8612L10.6601 12.8764C10.8832 12.9738 11.0916 13.0046 11.2822 12.9786C11.4725 12.9526 11.6237 12.8728 11.7373 12.7819C11.8491 12.6925 11.9257 12.5915 11.9739 12.5156C11.9984 12.4769 12.0166 12.443 12.0293 12.4175C12.0356 12.4046 12.0407 12.3938 12.0444 12.3853L12.0491 12.3744L12.0508 12.3704L12.0515 12.3688ZM4.95888 8.67175C4.93806 8.5928 4.97074 8.50945 5.03967 8.46568L11.2409 4.52761C11.2409 4.52761 11.6057 4.30617 11.5926 4.52761C11.5926 4.52761 11.6577 4.56671 11.4623 4.74904C11.2769 4.92221 7.04248 9.01038 6.61402 9.42405C6.58928 9.44793 6.57452 9.47532 6.56581 9.50858L5.87468 12.1458L4.95888 8.67175Z" fill="currentColor"></path>
  </symbol>
  <symbol xmlns="http://www.w3.org/2000/svg" viewBox="0 0 22 22" id="ic_time">
    <path d="M11 -6.10352e-05C4.93436 -6.10352e-05 0 4.9343 0 10.9999C0 17.0656 4.93436 21.9999 11 21.9999C17.0656 21.9999 22 17.0656 22 10.9999C22 4.9343 17.0656 -6.10352e-05 11 -6.10352e-05ZM16.2314 16.6896C16.0527 16.8684 15.818 16.9583 15.5834 16.9583C15.3487 16.9583 15.1139 16.8684 14.9353 16.6896L10.3519 12.1064C10.1796 11.935 10.0834 11.702 10.0834 11.4583V5.49994C10.0834 4.99304 10.4939 4.58333 11 4.58333C11.5061 4.58333 11.9166 4.99304 11.9166 5.49994V11.0788L16.2314 15.3935C16.5898 15.752 16.5898 16.3313 16.2314 16.6896Z" fill="currentColor"></path>
  </symbol>
  <symbol xmlns="http://www.w3.org/2000/svg" viewBox="0 0 19.4663 21.833" id="ic_video_play">
    <path d="M18.4141 9.09399L3.15674 0.285156C1.75342 -0.524902 0 0.487549 0 2.10767L0 19.7253C0 21.3455 1.75342 22.3579 3.15674 21.5479L18.4141 12.739C19.8169 11.929 19.8169 9.90405 18.4141 9.09399Z" fill="currentColor" fill-opacity="1.000000" fill-rule="evenodd"></path>
  </symbol>
  <symbol fill="none" xmlns="http://www.w3.org/2000/svg" viewBox="0 0 16 16" id="ic_whatsapp">
    <path d="M0 15.0122L1.29105 11.1391C0.635767 10.0372 0.25821 8.75137 0.25821 7.377C0.25821 3.30269 3.5609 0 7.63521 0C11.7095 0 15.0122 3.30269 15.0122 7.377C15.0122 11.4506 11.7095 14.7532 7.63521 14.7532C6.39595 14.7532 5.228 14.4462 4.20342 13.9066L0 15.0122Z" fill="currentColor"></path>
    <path d="M12.0594 10.0041C11.7306 9.38183 10.5161 8.67025 10.5161 8.67025C10.2414 8.51337 9.90965 8.49611 9.75352 8.77534C9.75352 8.77534 9.3587 9.24822 9.25812 9.31653C8.80025 9.62728 8.3754 9.61527 7.9468 9.18667L6.95074 8.19061L5.95468 7.19455C5.52608 6.76595 5.51407 6.34111 5.82483 5.88324C5.89238 5.78265 6.36602 5.38783 6.36602 5.38783C6.64524 5.23096 6.62723 4.89994 6.4711 4.62521C6.4711 4.62521 5.75952 3.41072 5.13727 3.08196C4.8723 2.94159 4.54729 2.99038 4.33562 3.20205L3.89576 3.64191C2.50037 5.0373 3.18718 6.61283 4.58257 8.00821L5.85785 9.2835L7.13314 10.5588C8.52853 11.9542 10.1041 12.641 11.4994 11.2456L11.9393 10.8057C12.151 10.5933 12.1998 10.2683 12.0594 10.0041Z" fill="white"></path>
  </symbol>
</svg>